<svg width="1440" height="111" viewBox="0 0 1440 111" fill="none" xmlns="http://www.w3.org/2000/svg">
<path d="M519.128 72.4032C527.268 72.4032 533.867 64.8747 533.867 55.5879C533.867 46.3011 527.268 38.7727 519.128 38.7727C510.988 38.7727 504.389 46.3011 504.389 55.5879C504.389 64.8747 510.988 72.4032 519.128 72.4032Z" fill="#BBC9E6"/>
<path d="M541.935 81.5002C554.612 81.5002 564.888 69.3271 564.888 54.3109C564.888 39.2946 554.612 27.1215 541.935 27.1215C529.258 27.1215 518.981 39.2946 518.981 54.3109C518.981 69.3271 529.258 81.5002 541.935 81.5002Z" fill="#BBC9E6"/>
<path d="M557.505 86.1779C565.645 86.1779 572.244 78.6495 572.244 69.3627C572.244 60.0759 565.645 52.5474 557.505 52.5474C549.365 52.5474 542.767 60.0759 542.767 69.3627C542.767 78.6495 549.365 86.1779 557.505 86.1779Z" fill="#BBC9E6"/>
<path d="M571.031 83.3387C582.964 83.3387 592.636 73.3465 592.636 61.0205C592.636 48.6944 582.964 38.7022 571.031 38.7022C559.099 38.7022 549.427 48.6944 549.427 61.0205C549.427 73.3465 559.099 83.3387 571.031 83.3387Z" fill="#BBC9E6"/>
<path d="M594.444 81.5002C600.688 81.5002 605.749 73.8454 605.749 64.4027C605.749 54.9601 600.688 47.3053 594.444 47.3053C588.2 47.3053 583.138 54.9601 583.138 64.4027C583.138 73.8454 588.2 81.5002 594.444 81.5002Z" fill="#BBC9E6"/>
<path d="M619.693 83.418C630.891 83.418 639.969 74.8788 639.969 64.3451C639.969 53.8114 630.891 45.2722 619.693 45.2722C608.495 45.2722 599.417 53.8114 599.417 64.3451C599.417 74.8788 608.495 83.418 619.693 83.418Z" fill="#BBC9E6"/>
<path d="M641.34 80.2515C650.52 80.2515 657.962 69.8171 657.962 56.9455C657.962 44.074 650.52 33.6395 641.34 33.6395C632.161 33.6395 624.719 44.074 624.719 56.9455C624.719 69.8171 632.161 80.2515 641.34 80.2515Z" fill="#BBC9E6"/>
<path d="M660.675 68.7176C669.854 68.7176 677.296 58.2832 677.296 45.4116C677.296 32.5401 669.854 22.1056 660.675 22.1056C651.495 22.1056 644.053 32.5401 644.053 45.4116C644.053 58.2832 651.495 68.7176 660.675 68.7176Z" fill="#BBC9E6"/>
<path d="M683.761 90.0005C692.941 90.0005 700.383 79.5661 700.383 66.6945C700.383 53.823 692.941 43.3885 683.761 43.3885C674.582 43.3885 667.14 53.823 667.14 66.6945C667.14 79.5661 674.582 90.0005 683.761 90.0005Z" fill="#BBC9E6"/>
<path d="M702.879 86.1779C712.058 86.1779 719.5 75.7434 719.5 62.8719C719.5 50.0003 712.058 39.5659 702.879 39.5659C693.699 39.5659 686.257 50.0003 686.257 62.8719C686.257 75.7434 693.699 86.1779 702.879 86.1779Z" fill="#BBC9E6"/>
<path d="M8.85803 81.5804C14.3024 81.5804 18.716 73.4865 18.716 63.502C18.716 53.5176 14.3024 45.4237 8.85803 45.4237C3.41362 45.4237 -0.999934 53.5176 -0.999934 63.502C-0.999934 73.4865 3.41362 81.5804 8.85803 81.5804Z" fill="#BBC9E6"/>
<path d="M26.0142 68.2419C34.0951 68.2419 40.646 58.9497 40.646 47.4872C40.646 36.0247 34.0951 26.7326 26.0142 26.7326C17.9332 26.7326 11.3823 36.0247 11.3823 47.4872C11.3823 58.9497 17.9332 68.2419 26.0142 68.2419Z" fill="#BBC9E6"/>
<path d="M67.4543 101.656C81.8354 101.656 93.4935 88.8325 93.4935 73.0134C93.4935 57.1944 81.8354 44.3705 67.4543 44.3705C53.0732 44.3705 41.415 57.1944 41.415 73.0134C41.415 88.8325 53.0732 101.656 67.4543 101.656Z" fill="#BBC9E6"/>
<path d="M40.9333 91.1716C49.0142 91.1716 55.5651 81.8794 55.5651 70.4169C55.5651 58.9544 49.0142 49.6622 40.9333 49.6622C32.8523 49.6622 26.3014 58.9544 26.3014 70.4169C26.3014 81.8794 32.8523 91.1716 40.9333 91.1716Z" fill="#BBC9E6"/>
<path d="M86.1984 84.1755C94.2793 84.1755 100.83 74.8833 100.83 63.4208C100.83 51.9584 94.2793 42.6662 86.1984 42.6662C78.1174 42.6662 71.5665 51.9584 71.5665 63.4208C71.5665 74.8833 78.1174 84.1755 86.1984 84.1755Z" fill="#BBC9E6"/>
<path d="M104.452 89.0455C112.532 89.0455 119.083 79.7533 119.083 68.2908C119.083 56.8283 112.532 47.5361 104.452 47.5361C96.3706 47.5361 89.8197 56.8283 89.8197 68.2908C89.8197 79.7533 96.3706 89.0455 104.452 89.0455Z" fill="#BBC9E6"/>
<path d="M137.294 92.3419C153.55 92.3419 166.729 75.4345 166.729 54.5781C166.729 33.7218 153.55 16.8144 137.294 16.8144C121.038 16.8144 107.86 33.7218 107.86 54.5781C107.86 75.4345 121.038 92.3419 137.294 92.3419Z" fill="#BBC9E6"/>
<path d="M161.862 86.2629C169.394 86.2629 175.499 78.8213 175.499 69.6416C175.499 60.462 169.394 53.0204 161.862 53.0204C154.331 53.0204 148.226 60.462 148.226 69.6416C148.226 78.8213 154.331 86.2629 161.862 86.2629Z" fill="#BBC9E6"/>
<path d="M193.83 105.485C209.25 105.485 221.751 90.471 221.751 71.951C221.751 53.4309 209.25 38.4174 193.83 38.4174C178.409 38.4174 165.908 53.4309 165.908 71.951C165.908 90.471 178.409 105.485 193.83 105.485Z" fill="#BBC9E6"/>
<path d="M223.838 110.156C232.304 110.156 239.167 99.0962 239.167 85.4537C239.167 71.8112 232.304 60.7518 223.838 60.7518C215.373 60.7518 208.51 71.8112 208.51 85.4537C208.51 99.0962 215.373 110.156 223.838 110.156Z" fill="#BBC9E6"/>
<path d="M244.776 81.0294C252.124 81.0294 258.081 74.7295 258.081 66.9581C258.081 59.1868 252.124 52.8868 244.776 52.8868C237.427 52.8868 231.47 59.1868 231.47 66.9581C231.47 74.7295 237.427 81.0294 244.776 81.0294Z" fill="#BBC9E6"/>
<path d="M267.496 65.4213C274.478 65.4213 280.138 58.3941 280.138 49.7257C280.138 41.0572 274.478 34.03 267.496 34.03C260.515 34.03 254.855 41.0572 254.855 49.7257C254.855 58.3941 260.515 65.4213 267.496 65.4213Z" fill="#BBC9E6"/>
<path d="M282.685 73.5342C289.667 73.5342 295.327 66.507 295.327 57.8386C295.327 49.1701 289.667 42.1429 282.685 42.1429C275.704 42.1429 270.044 49.1701 270.044 57.8386C270.044 66.507 275.704 73.5342 282.685 73.5342Z" fill="#BBC9E6"/>
<path d="M302.928 83.62C309.909 83.62 315.569 76.5928 315.569 67.9244C315.569 59.2559 309.909 52.2288 302.928 52.2288C295.946 52.2288 290.286 59.2559 290.286 67.9244C290.286 76.5928 295.946 83.62 302.928 83.62Z" fill="#BBC9E6"/>
<path d="M327.389 84.5515C337.652 84.5515 345.972 74.9283 345.972 63.0574C345.972 51.1865 337.652 41.5633 327.389 41.5633C317.126 41.5633 308.806 51.1865 308.806 63.0574C308.806 74.9283 317.126 84.5515 327.389 84.5515Z" fill="#BBC9E6"/>
<path d="M321.637 94.2506C331.901 94.2506 340.22 84.6274 340.22 72.7565C340.22 60.8856 331.901 51.2624 321.637 51.2624C311.374 51.2624 303.054 60.8856 303.054 72.7565C303.054 84.6274 311.374 94.2506 321.637 94.2506Z" fill="#BBC9E6"/>
<path d="M344.08 66.0466C352.458 66.0466 359.25 58.0099 359.25 48.096C359.25 38.1822 352.458 30.1455 344.08 30.1455C335.702 30.1455 328.91 38.1822 328.91 48.096C328.91 58.0099 335.702 66.0466 344.08 66.0466Z" fill="#BBC9E6"/>
<path d="M370.434 108.747C388.587 108.747 403.303 95.8061 403.303 79.8432C403.303 63.8803 388.587 50.9399 370.434 50.9399C352.282 50.9399 337.566 63.8803 337.566 79.8432C337.566 95.8061 352.282 108.747 370.434 108.747Z" fill="#BBC9E6"/>
<path d="M383.455 67.8392C389.529 67.8392 394.454 63.0805 394.454 57.2105C394.454 51.3404 389.529 46.5817 383.455 46.5817C377.381 46.5817 372.457 51.3404 372.457 57.2105C372.457 63.0805 377.381 67.8392 383.455 67.8392Z" fill="#BBC9E6"/>
<path d="M405.163 79.7581C412.234 79.7581 417.967 71.4842 417.967 61.2778C417.967 51.0714 412.234 42.7975 405.163 42.7975C398.091 42.7975 392.358 51.0714 392.358 61.2778C392.358 71.4842 398.091 79.7581 405.163 79.7581Z" fill="#BBC9E6"/>
<path d="M425.047 74.9225C435.162 74.9225 443.362 64.4363 443.362 51.5008C443.362 38.5654 435.162 28.0791 425.047 28.0791C414.932 28.0791 406.732 38.5654 406.732 51.5008C406.732 64.4363 414.932 74.9225 425.047 74.9225Z" fill="#BBC9E6"/>
<path d="M457.165 96.5047C469.408 96.5047 479.333 83.2814 479.333 66.9697C479.333 50.658 469.408 37.4347 457.165 37.4347C444.922 37.4347 434.997 50.658 434.997 66.9697C434.997 83.2814 444.922 96.5047 457.165 96.5047Z" fill="#BBC9E6"/>
<path d="M472.925 89.083C483.455 89.083 491.992 79.3975 491.992 67.4498C491.992 55.5021 483.455 45.8166 472.925 45.8166C462.395 45.8166 453.858 55.5021 453.858 67.4498C453.858 79.3975 462.395 89.083 472.925 89.083Z" fill="#BBC9E6"/>
<path d="M157.495 71.0814C169.374 71.0814 179.005 55.1693 179.005 35.5407C179.005 15.9121 169.374 0 157.495 0C145.615 0 135.985 15.9121 135.985 35.5407C135.985 55.1693 145.615 71.0814 157.495 71.0814Z" fill="#BBC9E6"/>
<path d="M175.088 66.4501C189.818 66.4501 201.759 56.7585 201.759 44.8032C201.759 32.848 189.818 23.1563 175.088 23.1563C160.357 23.1563 148.416 32.848 148.416 44.8032C148.416 56.7585 160.357 66.4501 175.088 66.4501Z" fill="#BBC9E6"/>
<path d="M225.581 97.2018C233.084 97.2018 239.167 85.6026 239.167 71.2941C239.167 56.9857 233.084 45.3865 225.581 45.3865C218.077 45.3865 211.994 56.9857 211.994 71.2941C211.994 85.6026 218.077 97.2018 225.581 97.2018Z" fill="#BBC9E6"/>
<path d="M249.239 93.8671C259.352 93.8671 267.551 83.1801 267.551 69.9972C267.551 56.8142 259.352 46.1273 249.239 46.1273C239.126 46.1273 230.928 56.8142 230.928 69.9972C230.928 83.1801 239.126 93.8671 249.239 93.8671Z" fill="#BBC9E6"/>
<path d="M368.1 74.9806C379.932 74.9806 389.522 63.7092 389.522 49.8052C389.522 35.9012 379.932 24.6298 368.1 24.6298C356.269 24.6298 346.678 35.9012 346.678 49.8052C346.678 63.7092 356.269 74.9806 368.1 74.9806Z" fill="#BBC9E6"/>
<path d="M494.886 93.2978C505.416 93.2978 513.953 83.6123 513.953 71.6646C513.953 59.7169 505.416 50.0314 494.886 50.0314C484.355 50.0314 475.819 59.7169 475.819 71.6646C475.819 83.6123 484.355 93.2978 494.886 93.2978Z" fill="#BBC9E6"/>
<path d="M554.353 51.8001C562.493 51.8001 569.091 44.2717 569.091 34.9849C569.091 25.6981 562.493 18.1696 554.353 18.1696C546.213 18.1696 539.614 25.6981 539.614 34.9849C539.614 44.2717 546.213 51.8001 554.353 51.8001Z" fill="#BBC9E6"/>
<path d="M569.183 60.7519C577.323 60.7519 583.922 53.2235 583.922 43.9367C583.922 34.6498 577.323 27.1214 569.183 27.1214C561.043 27.1214 554.444 34.6498 554.444 43.9367C554.444 53.2235 561.043 60.7519 569.183 60.7519Z" fill="#BBC9E6"/>
<path d="M719.5 60.7519H-1V109.833H719.5V60.7519Z" fill="#BBC9E6"/>
<path d="M1239.63 72.4032C1247.77 72.4032 1254.37 64.8747 1254.37 55.5879C1254.37 46.3011 1247.77 38.7727 1239.63 38.7727C1231.49 38.7727 1224.89 46.3011 1224.89 55.5879C1224.89 64.8747 1231.49 72.4032 1239.63 72.4032Z" fill="#BBC9E6"/>
<path d="M1262.43 81.5002C1275.11 81.5002 1285.39 69.3271 1285.39 54.3109C1285.39 39.2946 1275.11 27.1215 1262.43 27.1215C1249.76 27.1215 1239.48 39.2946 1239.48 54.3109C1239.48 69.3271 1249.76 81.5002 1262.43 81.5002Z" fill="#BBC9E6"/>
<path d="M1278.01 86.1779C1286.15 86.1779 1292.74 78.6495 1292.74 69.3627C1292.74 60.0759 1286.15 52.5474 1278.01 52.5474C1269.87 52.5474 1263.27 60.0759 1263.27 69.3627C1263.27 78.6495 1269.87 86.1779 1278.01 86.1779Z" fill="#BBC9E6"/>
<path d="M1291.53 83.3387C1303.46 83.3387 1313.14 73.3465 1313.14 61.0205C1313.14 48.6944 1303.46 38.7022 1291.53 38.7022C1279.6 38.7022 1269.93 48.6944 1269.93 61.0205C1269.93 73.3465 1279.6 83.3387 1291.53 83.3387Z" fill="#BBC9E6"/>
<path d="M1314.94 81.5002C1321.19 81.5002 1326.25 73.8454 1326.25 64.4027C1326.25 54.9601 1321.19 47.3053 1314.94 47.3053C1308.7 47.3053 1303.64 54.9601 1303.64 64.4027C1303.64 73.8454 1308.7 81.5002 1314.94 81.5002Z" fill="#BBC9E6"/>
<path d="M1340.19 83.418C1351.39 83.418 1360.47 74.8788 1360.47 64.3451C1360.47 53.8114 1351.39 45.2722 1340.19 45.2722C1328.99 45.2722 1319.92 53.8114 1319.92 64.3451C1319.92 74.8788 1328.99 83.418 1340.19 83.418Z" fill="#BBC9E6"/>
<path d="M1361.84 80.2515C1371.02 80.2515 1378.46 69.8171 1378.46 56.9455C1378.46 44.074 1371.02 33.6395 1361.84 33.6395C1352.66 33.6395 1345.22 44.074 1345.22 56.9455C1345.22 69.8171 1352.66 80.2515 1361.84 80.2515Z" fill="#BBC9E6"/>
<path d="M1381.17 68.7176C1390.35 68.7176 1397.8 58.2832 1397.8 45.4116C1397.8 32.5401 1390.35 22.1056 1381.17 22.1056C1371.99 22.1056 1364.55 32.5401 1364.55 45.4116C1364.55 58.2832 1371.99 68.7176 1381.17 68.7176Z" fill="#BBC9E6"/>
<path d="M1404.26 90.0005C1413.44 90.0005 1420.88 79.5661 1420.88 66.6945C1420.88 53.823 1413.44 43.3885 1404.26 43.3885C1395.08 43.3885 1387.64 53.823 1387.64 66.6945C1387.64 79.5661 1395.08 90.0005 1404.26 90.0005Z" fill="#BBC9E6"/>
<path d="M1423.38 86.1779C1432.56 86.1779 1440 75.7434 1440 62.8719C1440 50.0003 1432.56 39.5659 1423.38 39.5659C1414.2 39.5659 1406.76 50.0003 1406.76 62.8719C1406.76 75.7434 1414.2 86.1779 1423.38 86.1779Z" fill="#BBC9E6"/>
<path d="M729.358 81.5804C734.802 81.5804 739.216 73.4865 739.216 63.502C739.216 53.5176 734.802 45.4237 729.358 45.4237C723.914 45.4237 719.5 53.5176 719.5 63.502C719.5 73.4865 723.914 81.5804 729.358 81.5804Z" fill="#BBC9E6"/>
<path d="M746.514 68.2419C754.595 68.2419 761.146 58.9497 761.146 47.4872C761.146 36.0247 754.595 26.7326 746.514 26.7326C738.433 26.7326 731.882 36.0247 731.882 47.4872C731.882 58.9497 738.433 68.2419 746.514 68.2419Z" fill="#BBC9E6"/>
<path d="M787.954 101.656C802.335 101.656 813.993 88.8325 813.993 73.0134C813.993 57.1944 802.335 44.3705 787.954 44.3705C773.573 44.3705 761.915 57.1944 761.915 73.0134C761.915 88.8325 773.573 101.656 787.954 101.656Z" fill="#BBC9E6"/>
<path d="M761.433 91.1716C769.514 91.1716 776.065 81.8794 776.065 70.4169C776.065 58.9544 769.514 49.6622 761.433 49.6622C753.352 49.6622 746.801 58.9544 746.801 70.4169C746.801 81.8794 753.352 91.1716 761.433 91.1716Z" fill="#BBC9E6"/>
<path d="M806.698 84.1755C814.779 84.1755 821.33 74.8833 821.33 63.4208C821.33 51.9584 814.779 42.6662 806.698 42.6662C798.617 42.6662 792.067 51.9584 792.067 63.4208C792.067 74.8833 798.617 84.1755 806.698 84.1755Z" fill="#BBC9E6"/>
<path d="M824.952 89.0455C833.032 89.0455 839.583 79.7533 839.583 68.2908C839.583 56.8283 833.032 47.5361 824.952 47.5361C816.871 47.5361 810.32 56.8283 810.32 68.2908C810.32 79.7533 816.871 89.0455 824.952 89.0455Z" fill="#BBC9E6"/>
<path d="M857.794 92.3419C874.05 92.3419 887.229 75.4345 887.229 54.5781C887.229 33.7218 874.05 16.8144 857.794 16.8144C841.538 16.8144 828.36 33.7218 828.36 54.5781C828.36 75.4345 841.538 92.3419 857.794 92.3419Z" fill="#BBC9E6"/>
<path d="M882.362 86.2629C889.894 86.2629 895.999 78.8213 895.999 69.6416C895.999 60.462 889.894 53.0204 882.362 53.0204C874.831 53.0204 868.726 60.462 868.726 69.6416C868.726 78.8213 874.831 86.2629 882.362 86.2629Z" fill="#BBC9E6"/>
<path d="M914.33 105.485C929.75 105.485 942.251 90.471 942.251 71.951C942.251 53.4309 929.75 38.4174 914.33 38.4174C898.909 38.4174 886.408 53.4309 886.408 71.951C886.408 90.471 898.909 105.485 914.33 105.485Z" fill="#BBC9E6"/>
<path d="M944.338 110.156C952.804 110.156 959.667 99.0962 959.667 85.4537C959.667 71.8112 952.804 60.7518 944.338 60.7518C935.873 60.7518 929.01 71.8112 929.01 85.4537C929.01 99.0962 935.873 110.156 944.338 110.156Z" fill="#BBC9E6"/>
<path d="M965.276 81.0294C972.624 81.0294 978.581 74.7295 978.581 66.9581C978.581 59.1868 972.624 52.8868 965.276 52.8868C957.927 52.8868 951.97 59.1868 951.97 66.9581C951.97 74.7295 957.927 81.0294 965.276 81.0294Z" fill="#BBC9E6"/>
<path d="M987.996 65.4213C994.978 65.4213 1000.64 58.3941 1000.64 49.7257C1000.64 41.0572 994.978 34.03 987.996 34.03C981.015 34.03 975.355 41.0572 975.355 49.7257C975.355 58.3941 981.015 65.4213 987.996 65.4213Z" fill="#BBC9E6"/>
<path d="M1003.19 73.5342C1010.17 73.5342 1015.83 66.507 1015.83 57.8386C1015.83 49.1701 1010.17 42.1429 1003.19 42.1429C996.204 42.1429 990.544 49.1701 990.544 57.8386C990.544 66.507 996.204 73.5342 1003.19 73.5342Z" fill="#BBC9E6"/>
<path d="M1023.43 83.62C1030.41 83.62 1036.07 76.5928 1036.07 67.9244C1036.07 59.2559 1030.41 52.2288 1023.43 52.2288C1016.45 52.2288 1010.79 59.2559 1010.79 67.9244C1010.79 76.5928 1016.45 83.62 1023.43 83.62Z" fill="#BBC9E6"/>
<path d="M1047.89 84.5515C1058.15 84.5515 1066.47 74.9283 1066.47 63.0574C1066.47 51.1865 1058.15 41.5633 1047.89 41.5633C1037.63 41.5633 1029.31 51.1865 1029.31 63.0574C1029.31 74.9283 1037.63 84.5515 1047.89 84.5515Z" fill="#BBC9E6"/>
<path d="M1042.14 94.2506C1052.4 94.2506 1060.72 84.6274 1060.72 72.7565C1060.72 60.8856 1052.4 51.2624 1042.14 51.2624C1031.87 51.2624 1023.55 60.8856 1023.55 72.7565C1023.55 84.6274 1031.87 94.2506 1042.14 94.2506Z" fill="#BBC9E6"/>
<path d="M1064.58 66.0466C1072.96 66.0466 1079.75 58.0099 1079.75 48.096C1079.75 38.1822 1072.96 30.1455 1064.58 30.1455C1056.2 30.1455 1049.41 38.1822 1049.41 48.096C1049.41 58.0099 1056.2 66.0466 1064.58 66.0466Z" fill="#BBC9E6"/>
<path d="M1090.93 108.747C1109.09 108.747 1123.8 95.8061 1123.8 79.8432C1123.8 63.8803 1109.09 50.9399 1090.93 50.9399C1072.78 50.9399 1058.07 63.8803 1058.07 79.8432C1058.07 95.8061 1072.78 108.747 1090.93 108.747Z" fill="#BBC9E6"/>
<path d="M1103.96 67.8392C1110.03 67.8392 1114.95 63.0805 1114.95 57.2105C1114.95 51.3404 1110.03 46.5817 1103.96 46.5817C1097.88 46.5817 1092.96 51.3404 1092.96 57.2105C1092.96 63.0805 1097.88 67.8392 1103.96 67.8392Z" fill="#BBC9E6"/>
<path d="M1125.66 79.7581C1132.73 79.7581 1138.47 71.4842 1138.47 61.2778C1138.47 51.0714 1132.73 42.7975 1125.66 42.7975C1118.59 42.7975 1112.86 51.0714 1112.86 61.2778C1112.86 71.4842 1118.59 79.7581 1125.66 79.7581Z" fill="#BBC9E6"/>
<path d="M1145.55 74.9225C1155.66 74.9225 1163.86 64.4363 1163.86 51.5008C1163.86 38.5654 1155.66 28.0791 1145.55 28.0791C1135.43 28.0791 1127.23 38.5654 1127.23 51.5008C1127.23 64.4363 1135.43 74.9225 1145.55 74.9225Z" fill="#BBC9E6"/>
<path d="M1177.67 96.5047C1189.91 96.5047 1199.83 83.2814 1199.83 66.9697C1199.83 50.658 1189.91 37.4347 1177.67 37.4347C1165.42 37.4347 1155.5 50.658 1155.5 66.9697C1155.5 83.2814 1165.42 96.5047 1177.67 96.5047Z" fill="#BBC9E6"/>
<path d="M1193.43 89.083C1203.96 89.083 1212.49 79.3975 1212.49 67.4498C1212.49 55.5021 1203.96 45.8166 1193.43 45.8166C1182.89 45.8166 1174.36 55.5021 1174.36 67.4498C1174.36 79.3975 1182.89 89.083 1193.43 89.083Z" fill="#BBC9E6"/>
<path d="M877.995 71.0814C889.874 71.0814 899.505 55.1693 899.505 35.5407C899.505 15.9121 889.874 0 877.995 0C866.115 0 856.484 15.9121 856.484 35.5407C856.484 55.1693 866.115 71.0814 877.995 71.0814Z" fill="#BBC9E6"/>
<path d="M895.588 66.4501C910.318 66.4501 922.259 56.7585 922.259 44.8032C922.259 32.848 910.318 23.1563 895.588 23.1563C880.857 23.1563 868.916 32.848 868.916 44.8032C868.916 56.7585 880.857 66.4501 895.588 66.4501Z" fill="#BBC9E6"/>
<path d="M946.081 97.2018C953.584 97.2018 959.667 85.6026 959.667 71.2941C959.667 56.9857 953.584 45.3865 946.081 45.3865C938.577 45.3865 932.495 56.9857 932.495 71.2941C932.495 85.6026 938.577 97.2018 946.081 97.2018Z" fill="#BBC9E6"/>
<path d="M969.739 93.8671C979.852 93.8671 988.051 83.1801 988.051 69.9972C988.051 56.8142 979.852 46.1273 969.739 46.1273C959.626 46.1273 951.428 56.8142 951.428 69.9972C951.428 83.1801 959.626 93.8671 969.739 93.8671Z" fill="#BBC9E6"/>
<path d="M1088.6 74.9806C1100.43 74.9806 1110.02 63.7092 1110.02 49.8052C1110.02 35.9012 1100.43 24.6298 1088.6 24.6298C1076.77 24.6298 1067.18 35.9012 1067.18 49.8052C1067.18 63.7092 1076.77 74.9806 1088.6 74.9806Z" fill="#BBC9E6"/>
<path d="M1215.39 93.2978C1225.92 93.2978 1234.45 83.6123 1234.45 71.6646C1234.45 59.7169 1225.92 50.0314 1215.39 50.0314C1204.86 50.0314 1196.32 59.7169 1196.32 71.6646C1196.32 83.6123 1204.86 93.2978 1215.39 93.2978Z" fill="#BBC9E6"/>
<path d="M1274.85 51.8001C1282.99 51.8001 1289.59 44.2717 1289.59 34.9849C1289.59 25.6981 1282.99 18.1696 1274.85 18.1696C1266.71 18.1696 1260.11 25.6981 1260.11 34.9849C1260.11 44.2717 1266.71 51.8001 1274.85 51.8001Z" fill="#BBC9E6"/>
<path d="M1289.68 60.7519C1297.82 60.7519 1304.42 53.2235 1304.42 43.9367C1304.42 34.6498 1297.82 27.1214 1289.68 27.1214C1281.54 27.1214 1274.94 34.6498 1274.94 43.9367C1274.94 53.2235 1281.54 60.7519 1289.68 60.7519Z" fill="#BBC9E6"/>
<path d="M1440 60.7519H719.5V109.833H1440V60.7519Z" fill="#BBC9E6"/>
</svg>
