<svg width="1440" height="107" viewBox="0 0 1440 107" fill="none" xmlns="http://www.w3.org/2000/svg">
<path d="M523.054 76.1462C531.194 76.1462 537.792 68.5016 537.792 59.0714C537.792 49.6413 531.194 41.9966 523.054 41.9966C514.914 41.9966 508.315 49.6413 508.315 59.0714C508.315 68.5016 514.914 76.1462 523.054 76.1462Z" fill="#F7F7F7"/>
<path d="M542.444 68.6748C550.584 68.6748 557.182 61.0302 557.182 51.6C557.182 42.1699 550.584 34.5253 542.444 34.5253C534.304 34.5253 527.705 42.1699 527.705 51.6C527.705 61.0302 534.304 68.6748 542.444 68.6748Z" fill="#F7F7F7"/>
<path d="M557.505 81.8567C565.645 81.8567 572.244 74.2121 572.244 64.7819C572.244 55.3518 565.645 47.7071 557.505 47.7071C549.365 47.7071 542.767 55.3518 542.767 64.7819C542.767 74.2121 549.365 81.8567 557.505 81.8567Z" fill="#F7F7F7"/>
<path d="M586.007 77.8451C597.939 77.8451 607.612 67.6986 607.612 55.1823C607.612 42.666 597.939 32.5195 586.007 32.5195C574.075 32.5195 564.402 42.666 564.402 55.1823C564.402 67.6986 574.075 77.8451 586.007 77.8451Z" fill="#F7F7F7"/>
<path d="M603.022 56.0385C609.266 56.0385 614.328 48.2655 614.328 38.6771C614.328 29.0887 609.266 21.3157 603.022 21.3157C596.778 21.3157 591.717 29.0887 591.717 38.6771C591.717 48.2655 596.778 56.0385 603.022 56.0385Z" fill="#F7F7F7"/>
<path d="M619.693 76.985C630.891 76.985 639.969 68.3139 639.969 57.6177C639.969 46.9214 630.891 38.2504 619.693 38.2504C608.495 38.2504 599.417 46.9214 599.417 57.6177C599.417 68.3139 608.495 76.985 619.693 76.985Z" fill="#F7F7F7"/>
<path d="M641.34 75.8389C650.52 75.8389 657.962 65.2433 657.962 52.1731C657.962 39.1029 650.52 28.5074 641.34 28.5074C632.161 28.5074 624.719 39.1029 624.719 52.1731C624.719 65.2433 632.161 75.8389 641.34 75.8389Z" fill="#F7F7F7"/>
<path d="M652.969 56.0382C662.148 56.0382 669.59 45.4427 669.59 32.3724C669.59 19.3022 662.148 8.70668 652.969 8.70668C643.789 8.70668 636.347 19.3022 636.347 32.3724C636.347 45.4427 643.789 56.0382 652.969 56.0382Z" fill="#F7F7F7"/>
<path d="M675.339 56.0382C684.519 56.0382 691.961 45.4427 691.961 32.3724C691.961 19.3022 684.519 8.70668 675.339 8.70668C666.16 8.70668 658.718 19.3022 658.718 32.3724C658.718 45.4427 666.16 56.0382 675.339 56.0382Z" fill="#F7F7F7"/>
<path d="M688.85 71.2539C698.03 71.2539 705.472 60.6584 705.472 47.5881C705.472 34.5179 698.03 23.9224 688.85 23.9224C679.671 23.9224 672.229 34.5179 672.229 47.5881C672.229 60.6584 679.671 71.2539 688.85 71.2539Z" fill="#F7F7F7"/>
<path d="M664.486 78.1314C673.666 78.1314 681.107 67.5359 681.107 54.4657C681.107 41.3954 673.666 30.7999 664.486 30.7999C655.306 30.7999 647.865 41.3954 647.865 54.4657C647.865 67.5359 655.306 78.1314 664.486 78.1314Z" fill="#F7F7F7"/>
<path d="M702.879 81.8567C712.058 81.8567 719.5 71.2612 719.5 58.191C719.5 45.1207 712.058 34.5252 702.879 34.5252C693.699 34.5252 686.257 45.1207 686.257 58.191C686.257 71.2612 693.699 81.8567 702.879 81.8567Z" fill="#F7F7F7"/>
<path d="M8.85803 77.1883C14.3024 77.1883 18.716 68.9694 18.716 58.8309C18.716 48.6923 14.3024 40.4734 8.85803 40.4734C3.41363 40.4734 -0.999927 48.6923 -0.999927 58.8309C-0.999927 68.9694 3.41363 77.1883 8.85803 77.1883Z" fill="#F7F7F7"/>
<path d="M28.3405 73.9899C36.4215 73.9899 42.9724 64.5543 42.9724 52.9149C42.9724 41.2755 36.4215 31.8399 28.3405 31.8399C20.2596 31.8399 13.7087 41.2755 13.7087 52.9149C13.7087 64.5543 20.2596 73.9899 28.3405 73.9899Z" fill="#F7F7F7"/>
<path d="M86.7193 106.039C104.593 106.039 119.083 85.8585 119.083 60.9645C119.083 36.0706 104.593 15.8901 86.7193 15.8901C68.8452 15.8901 54.3553 36.0706 54.3553 60.9645C54.3553 85.8585 68.8452 106.039 86.7193 106.039Z" fill="#F7F7F7"/>
<path d="M50.0932 86.7394C58.1742 86.7394 64.7251 77.3038 64.7251 65.6644C64.7251 54.025 58.1742 44.5893 50.0932 44.5893C42.0123 44.5893 35.4614 54.025 35.4614 65.6644C35.4614 77.3038 42.0123 86.7394 50.0932 86.7394Z" fill="#F7F7F7"/>
<path d="M82.7089 42.9538C90.7898 42.9538 97.3407 33.5182 97.3407 21.8787C97.3407 10.2393 90.7898 0.803711 82.7089 0.803711C74.6279 0.803711 68.077 10.2393 68.077 21.8787C68.077 33.5182 74.6279 42.9538 82.7089 42.9538Z" fill="#F7F7F7"/>
<path d="M104.452 48.087C112.532 48.087 119.083 38.6514 119.083 27.012C119.083 15.3726 112.532 5.93698 104.452 5.93698C96.3706 5.93698 89.8197 15.3726 89.8197 27.012C89.8197 38.6514 96.3706 48.087 104.452 48.087Z" fill="#F7F7F7"/>
<path d="M121.519 98.4621C127.296 98.4621 131.979 81.6306 131.979 60.8679C131.979 40.1052 127.296 23.2737 121.519 23.2737C115.742 23.2737 111.059 40.1052 111.059 60.8679C111.059 81.6306 115.742 98.4621 121.519 98.4621Z" fill="#F7F7F7"/>
<path d="M140.542 106.804C152.393 106.804 162 91.5832 162 72.8077C162 54.0323 152.393 38.8118 140.542 38.8118C128.691 38.8118 119.083 54.0323 119.083 72.8077C119.083 91.5832 128.691 106.804 140.542 106.804Z" fill="#F7F7F7"/>
<path d="M161.862 81.943C169.394 81.943 175.499 74.3866 175.499 65.0652C175.499 55.7439 169.394 48.1874 161.862 48.1874C154.331 48.1874 148.226 55.7439 148.226 65.0652C148.226 74.3866 154.331 81.943 161.862 81.943Z" fill="#F7F7F7"/>
<path d="M193.83 101.461C209.25 101.461 221.751 86.2161 221.751 67.4102C221.751 48.6042 209.25 33.359 193.83 33.359C178.409 33.359 165.908 48.6042 165.908 67.4102C165.908 86.2161 178.409 101.461 193.83 101.461Z" fill="#F7F7F7"/>
<path d="M223.838 106.204C232.304 106.204 239.167 94.9744 239.167 81.1213C239.167 67.2682 232.304 56.0381 223.838 56.0381C215.373 56.0381 208.51 67.2682 208.51 81.1213C208.51 94.9744 215.373 106.204 223.838 106.204Z" fill="#F7F7F7"/>
<path d="M244.776 76.6288C252.124 76.6288 258.081 70.2316 258.081 62.3403C258.081 54.449 252.124 48.0518 244.776 48.0518C237.427 48.0518 231.47 54.449 231.47 62.3403C231.47 70.2316 237.427 76.6288 244.776 76.6288Z" fill="#F7F7F7"/>
<path d="M271.45 102.798C285.431 102.798 296.765 90.4692 296.765 75.2611C296.765 60.0531 285.431 47.7246 271.45 47.7246C257.468 47.7246 246.134 60.0531 246.134 75.2611C246.134 90.4692 257.468 102.798 271.45 102.798Z" fill="#F7F7F7"/>
<path d="M290.033 65.6706C297.015 65.6706 302.674 58.535 302.674 49.7327C302.674 40.9305 297.015 33.7948 290.033 33.7948C283.051 33.7948 277.391 40.9305 277.391 49.7327C277.391 58.535 283.051 65.6706 290.033 65.6706Z" fill="#F7F7F7"/>
<path d="M307.984 56.0382C314.966 56.0382 320.626 48.9026 320.626 40.1003C320.626 31.2981 314.966 24.1624 307.984 24.1624C301.002 24.1624 295.343 31.2981 295.343 40.1003C295.343 48.9026 301.002 56.0382 307.984 56.0382Z" fill="#F7F7F7"/>
<path d="M302.928 79.2593C309.909 79.2593 315.569 72.1237 315.569 63.3214C315.569 54.5192 309.909 47.3836 302.928 47.3836C295.946 47.3836 290.286 54.5192 290.286 63.3214C290.286 72.1237 295.946 79.2593 302.928 79.2593Z" fill="#F7F7F7"/>
<path d="M328.843 64.2158C339.106 64.2158 347.426 54.4441 347.426 42.3899C347.426 30.3358 339.106 20.5641 328.843 20.5641C318.58 20.5641 310.26 30.3358 310.26 42.3899C310.26 54.4441 318.58 64.2158 328.843 64.2158Z" fill="#F7F7F7"/>
<path d="M321.637 90.0541C331.9 90.0541 340.22 80.2823 340.22 68.2282C340.22 56.174 331.9 46.4023 321.637 46.4023C311.374 46.4023 303.054 56.174 303.054 68.2282C303.054 80.2823 311.374 90.0541 321.637 90.0541Z" fill="#F7F7F7"/>
<path d="M344.08 67.8105C352.458 67.8105 359.25 59.6497 359.25 49.5828C359.25 39.516 352.458 31.3552 344.08 31.3552C335.702 31.3552 328.91 39.516 328.91 49.5828C328.91 59.6497 335.702 67.8105 344.08 67.8105Z" fill="#F7F7F7"/>
<path d="M370.434 104.774C388.587 104.774 403.303 91.6335 403.303 75.4242C403.303 59.215 388.587 46.0748 370.434 46.0748C352.282 46.0748 337.566 59.215 337.566 75.4242C337.566 91.6335 352.282 104.774 370.434 104.774Z" fill="#F7F7F7"/>
<path d="M383.455 63.2349C389.529 63.2349 394.453 58.4028 394.453 52.4421C394.453 46.4815 389.529 41.6494 383.455 41.6494C377.381 41.6494 372.457 46.4815 372.457 52.4421C372.457 58.4028 377.381 63.2349 383.455 63.2349Z" fill="#F7F7F7"/>
<path d="M405.163 75.3378C412.234 75.3378 417.967 66.9362 417.967 56.5723C417.967 46.2083 412.234 37.8067 405.163 37.8067C398.091 37.8067 392.358 46.2083 392.358 56.5723C392.358 66.9362 398.091 75.3378 405.163 75.3378Z" fill="#F7F7F7"/>
<path d="M426.574 73.4375C438.817 73.4375 448.742 60.0101 448.742 43.4466C448.742 26.8831 438.817 13.4557 426.574 13.4557C414.33 13.4557 404.405 26.8831 404.405 43.4466C404.405 60.0101 414.33 73.4375 426.574 73.4375Z" fill="#F7F7F7"/>
<path d="M457.165 92.3429C469.408 92.3429 479.333 78.9155 479.333 62.352C479.333 45.7885 469.408 32.3612 457.165 32.3612C444.922 32.3612 434.997 45.7885 434.997 62.352C434.997 78.9155 444.922 92.3429 457.165 92.3429Z" fill="#F7F7F7"/>
<path d="M435.516 30.8782C439.65 30.8782 443.001 25.5717 443.001 19.0258C443.001 12.4799 439.65 7.17345 435.516 7.17345C431.382 7.17345 428.03 12.4799 428.03 19.0258C428.03 25.5717 431.382 30.8782 435.516 30.8782Z" fill="#F7F7F7"/>
<path d="M444.894 42.1536C449.028 42.1536 452.379 36.8471 452.379 30.3012C452.379 23.7553 449.028 18.4488 444.894 18.4488C440.76 18.4488 437.409 23.7553 437.409 30.3012C437.409 36.8471 440.76 42.1536 444.894 42.1536Z" fill="#F7F7F7"/>
<path d="M486.883 82.7374C497.413 82.7374 505.95 72.9024 505.95 60.7703C505.95 48.6382 497.413 38.8032 486.883 38.8032C476.352 38.8032 467.816 48.6382 467.816 60.7703C467.816 72.9024 476.352 82.7374 486.883 82.7374Z" fill="#F7F7F7"/>
<path d="M498.4 90.7609C508.931 90.7609 517.468 80.9259 517.468 68.7938C517.468 56.6617 508.931 46.8267 498.4 46.8267C487.87 46.8267 479.333 56.6617 479.333 68.7938C479.333 80.9259 487.87 90.7609 498.4 90.7609Z" fill="#F7F7F7"/>
<path d="M719.5 56.0383H-1V105.877H719.5V56.0383Z" fill="#F7F7F7"/>
<path d="M1243.55 76.1462C1251.69 76.1462 1258.29 68.5016 1258.29 59.0714C1258.29 49.6413 1251.69 41.9966 1243.55 41.9966C1235.41 41.9966 1228.81 49.6413 1228.81 59.0714C1228.81 68.5016 1235.41 76.1462 1243.55 76.1462Z" fill="#F7F7F7"/>
<path d="M1262.94 68.6748C1271.08 68.6748 1277.68 61.0302 1277.68 51.6C1277.68 42.1699 1271.08 34.5253 1262.94 34.5253C1254.8 34.5253 1248.21 42.1699 1248.21 51.6C1248.21 61.0302 1254.8 68.6748 1262.94 68.6748Z" fill="#F7F7F7"/>
<path d="M1278.01 81.8567C1286.15 81.8567 1292.74 74.2121 1292.74 64.7819C1292.74 55.3518 1286.15 47.7071 1278.01 47.7071C1269.87 47.7071 1263.27 55.3518 1263.27 64.7819C1263.27 74.2121 1269.87 81.8567 1278.01 81.8567Z" fill="#F7F7F7"/>
<path d="M1306.51 77.8451C1318.44 77.8451 1328.11 67.6986 1328.11 55.1823C1328.11 42.666 1318.44 32.5195 1306.51 32.5195C1294.58 32.5195 1284.9 42.666 1284.9 55.1823C1284.9 67.6986 1294.58 77.8451 1306.51 77.8451Z" fill="#F7F7F7"/>
<path d="M1323.52 56.0385C1329.77 56.0385 1334.83 48.2655 1334.83 38.6771C1334.83 29.0887 1329.77 21.3157 1323.52 21.3157C1317.28 21.3157 1312.22 29.0887 1312.22 38.6771C1312.22 48.2655 1317.28 56.0385 1323.52 56.0385Z" fill="#F7F7F7"/>
<path d="M1340.19 76.985C1351.39 76.985 1360.47 68.3139 1360.47 57.6177C1360.47 46.9214 1351.39 38.2504 1340.19 38.2504C1328.99 38.2504 1319.92 46.9214 1319.92 57.6177C1319.92 68.3139 1328.99 76.985 1340.19 76.985Z" fill="#F7F7F7"/>
<path d="M1361.84 75.8389C1371.02 75.8389 1378.46 65.2433 1378.46 52.1731C1378.46 39.1029 1371.02 28.5074 1361.84 28.5074C1352.66 28.5074 1345.22 39.1029 1345.22 52.1731C1345.22 65.2433 1352.66 75.8389 1361.84 75.8389Z" fill="#F7F7F7"/>
<path d="M1373.47 56.0382C1382.65 56.0382 1390.09 45.4427 1390.09 32.3724C1390.09 19.3022 1382.65 8.70668 1373.47 8.70668C1364.29 8.70668 1356.85 19.3022 1356.85 32.3724C1356.85 45.4427 1364.29 56.0382 1373.47 56.0382Z" fill="#F7F7F7"/>
<path d="M1395.84 56.0382C1405.02 56.0382 1412.46 45.4427 1412.46 32.3724C1412.46 19.3022 1405.02 8.70668 1395.84 8.70668C1386.66 8.70668 1379.22 19.3022 1379.22 32.3724C1379.22 45.4427 1386.66 56.0382 1395.84 56.0382Z" fill="#F7F7F7"/>
<path d="M1409.35 71.2539C1418.53 71.2539 1425.97 60.6584 1425.97 47.5881C1425.97 34.5179 1418.53 23.9224 1409.35 23.9224C1400.17 23.9224 1392.73 34.5179 1392.73 47.5881C1392.73 60.6584 1400.17 71.2539 1409.35 71.2539Z" fill="#F7F7F7"/>
<path d="M1384.99 78.1314C1394.17 78.1314 1401.61 67.5359 1401.61 54.4657C1401.61 41.3954 1394.17 30.7999 1384.99 30.7999C1375.81 30.7999 1368.36 41.3954 1368.36 54.4657C1368.36 67.5359 1375.81 78.1314 1384.99 78.1314Z" fill="#F7F7F7"/>
<path d="M1423.38 81.8567C1432.56 81.8567 1440 71.2612 1440 58.191C1440 45.1207 1432.56 34.5252 1423.38 34.5252C1414.2 34.5252 1406.76 45.1207 1406.76 58.191C1406.76 71.2612 1414.2 81.8567 1423.38 81.8567Z" fill="#F7F7F7"/>
<path d="M729.358 77.1883C734.802 77.1883 739.216 68.9694 739.216 58.8309C739.216 48.6923 734.802 40.4734 729.358 40.4734C723.914 40.4734 719.5 48.6923 719.5 58.8309C719.5 68.9694 723.914 77.1883 729.358 77.1883Z" fill="#F7F7F7"/>
<path d="M748.841 73.9899C756.921 73.9899 763.472 64.5543 763.472 52.9149C763.472 41.2755 756.921 31.8399 748.841 31.8399C740.76 31.8399 734.209 41.2755 734.209 52.9149C734.209 64.5543 740.76 73.9899 748.841 73.9899Z" fill="#F7F7F7"/>
<path d="M807.219 106.039C825.093 106.039 839.583 85.8585 839.583 60.9645C839.583 36.0706 825.093 15.8901 807.219 15.8901C789.345 15.8901 774.855 36.0706 774.855 60.9645C774.855 85.8585 789.345 106.039 807.219 106.039Z" fill="#F7F7F7"/>
<path d="M770.593 86.7394C778.674 86.7394 785.225 77.3038 785.225 65.6644C785.225 54.025 778.674 44.5893 770.593 44.5893C762.512 44.5893 755.961 54.025 755.961 65.6644C755.961 77.3038 762.512 86.7394 770.593 86.7394Z" fill="#F7F7F7"/>
<path d="M803.209 42.9538C811.29 42.9538 817.841 33.5182 817.841 21.8787C817.841 10.2393 811.29 0.803711 803.209 0.803711C795.128 0.803711 788.577 10.2393 788.577 21.8787C788.577 33.5182 795.128 42.9538 803.209 42.9538Z" fill="#F7F7F7"/>
<path d="M824.952 48.087C833.032 48.087 839.583 38.6514 839.583 27.012C839.583 15.3726 833.032 5.93698 824.952 5.93698C816.871 5.93698 810.32 15.3726 810.32 27.012C810.32 38.6514 816.871 48.087 824.952 48.087Z" fill="#F7F7F7"/>
<path d="M842.019 98.4621C847.796 98.4621 852.479 81.6306 852.479 60.8679C852.479 40.1052 847.796 23.2737 842.019 23.2737C836.242 23.2737 831.559 40.1052 831.559 60.8679C831.559 81.6306 836.242 98.4621 842.019 98.4621Z" fill="#F7F7F7"/>
<path d="M861.042 106.804C872.893 106.804 882.5 91.5832 882.5 72.8077C882.5 54.0323 872.893 38.8118 861.042 38.8118C849.191 38.8118 839.583 54.0323 839.583 72.8077C839.583 91.5832 849.191 106.804 861.042 106.804Z" fill="#F7F7F7"/>
<path d="M882.362 81.943C889.894 81.943 895.999 74.3866 895.999 65.0652C895.999 55.7439 889.894 48.1874 882.362 48.1874C874.831 48.1874 868.726 55.7439 868.726 65.0652C868.726 74.3866 874.831 81.943 882.362 81.943Z" fill="#F7F7F7"/>
<path d="M914.33 101.461C929.75 101.461 942.251 86.2161 942.251 67.4102C942.251 48.6042 929.75 33.359 914.33 33.359C898.909 33.359 886.408 48.6042 886.408 67.4102C886.408 86.2161 898.909 101.461 914.33 101.461Z" fill="#F7F7F7"/>
<path d="M944.338 106.204C952.804 106.204 959.667 94.9744 959.667 81.1213C959.667 67.2682 952.804 56.0381 944.338 56.0381C935.873 56.0381 929.01 67.2682 929.01 81.1213C929.01 94.9744 935.873 106.204 944.338 106.204Z" fill="#F7F7F7"/>
<path d="M965.276 76.6288C972.624 76.6288 978.581 70.2316 978.581 62.3403C978.581 54.449 972.624 48.0518 965.276 48.0518C957.927 48.0518 951.97 54.449 951.97 62.3403C951.97 70.2316 957.927 76.6288 965.276 76.6288Z" fill="#F7F7F7"/>
<path d="M991.95 102.798C1005.93 102.798 1017.26 90.4692 1017.26 75.2611C1017.26 60.0531 1005.93 47.7246 991.95 47.7246C977.969 47.7246 966.634 60.0531 966.634 75.2611C966.634 90.4692 977.969 102.798 991.95 102.798Z" fill="#F7F7F7"/>
<path d="M1010.53 65.6706C1017.51 65.6706 1023.17 58.535 1023.17 49.7327C1023.17 40.9305 1017.51 33.7948 1010.53 33.7948C1003.55 33.7948 997.891 40.9305 997.891 49.7327C997.891 58.535 1003.55 65.6706 1010.53 65.6706Z" fill="#F7F7F7"/>
<path d="M1028.48 56.0382C1035.47 56.0382 1041.13 48.9026 1041.13 40.1003C1041.13 31.2981 1035.47 24.1624 1028.48 24.1624C1021.5 24.1624 1015.84 31.2981 1015.84 40.1003C1015.84 48.9026 1021.5 56.0382 1028.48 56.0382Z" fill="#F7F7F7"/>
<path d="M1023.43 79.2593C1030.41 79.2593 1036.07 72.1237 1036.07 63.3214C1036.07 54.5192 1030.41 47.3836 1023.43 47.3836C1016.45 47.3836 1010.79 54.5192 1010.79 63.3214C1010.79 72.1237 1016.45 79.2593 1023.43 79.2593Z" fill="#F7F7F7"/>
<path d="M1049.34 64.2158C1059.61 64.2158 1067.93 54.4441 1067.93 42.3899C1067.93 30.3358 1059.61 20.5641 1049.34 20.5641C1039.08 20.5641 1030.76 30.3358 1030.76 42.3899C1030.76 54.4441 1039.08 64.2158 1049.34 64.2158Z" fill="#F7F7F7"/>
<path d="M1042.14 90.0541C1052.4 90.0541 1060.72 80.2823 1060.72 68.2282C1060.72 56.174 1052.4 46.4023 1042.14 46.4023C1031.87 46.4023 1023.55 56.174 1023.55 68.2282C1023.55 80.2823 1031.87 90.0541 1042.14 90.0541Z" fill="#F7F7F7"/>
<path d="M1064.58 67.8105C1072.96 67.8105 1079.75 59.6497 1079.75 49.5828C1079.75 39.516 1072.96 31.3552 1064.58 31.3552C1056.2 31.3552 1049.41 39.516 1049.41 49.5828C1049.41 59.6497 1056.2 67.8105 1064.58 67.8105Z" fill="#F7F7F7"/>
<path d="M1090.93 104.774C1109.09 104.774 1123.8 91.6335 1123.8 75.4242C1123.8 59.215 1109.09 46.0748 1090.93 46.0748C1072.78 46.0748 1058.07 59.215 1058.07 75.4242C1058.07 91.6335 1072.78 104.774 1090.93 104.774Z" fill="#F7F7F7"/>
<path d="M1103.96 63.2349C1110.03 63.2349 1114.95 58.4028 1114.95 52.4421C1114.95 46.4815 1110.03 41.6494 1103.96 41.6494C1097.88 41.6494 1092.96 46.4815 1092.96 52.4421C1092.96 58.4028 1097.88 63.2349 1103.96 63.2349Z" fill="#F7F7F7"/>
<path d="M1125.66 75.3378C1132.73 75.3378 1138.47 66.9362 1138.47 56.5723C1138.47 46.2083 1132.73 37.8067 1125.66 37.8067C1118.59 37.8067 1112.86 46.2083 1112.86 56.5723C1112.86 66.9362 1118.59 75.3378 1125.66 75.3378Z" fill="#F7F7F7"/>
<path d="M1147.07 73.4375C1159.32 73.4375 1169.24 60.0101 1169.24 43.4466C1169.24 26.8831 1159.32 13.4557 1147.07 13.4557C1134.83 13.4557 1124.91 26.8831 1124.91 43.4466C1124.91 60.0101 1134.83 73.4375 1147.07 73.4375Z" fill="#F7F7F7"/>
<path d="M1177.67 92.3429C1189.91 92.3429 1199.83 78.9155 1199.83 62.352C1199.83 45.7885 1189.91 32.3612 1177.67 32.3612C1165.42 32.3612 1155.5 45.7885 1155.5 62.352C1155.5 78.9155 1165.42 92.3429 1177.67 92.3429Z" fill="#F7F7F7"/>
<path d="M1156.02 30.8782C1160.15 30.8782 1163.5 25.5717 1163.5 19.0258C1163.5 12.4799 1160.15 7.17345 1156.02 7.17345C1151.88 7.17345 1148.53 12.4799 1148.53 19.0258C1148.53 25.5717 1151.88 30.8782 1156.02 30.8782Z" fill="#F7F7F7"/>
<path d="M1165.39 42.1536C1169.53 42.1536 1172.88 36.8471 1172.88 30.3012C1172.88 23.7553 1169.53 18.4488 1165.39 18.4488C1161.26 18.4488 1157.91 23.7553 1157.91 30.3012C1157.91 36.8471 1161.26 42.1536 1165.39 42.1536Z" fill="#F7F7F7"/>
<path d="M1207.38 82.7374C1217.91 82.7374 1226.45 72.9024 1226.45 60.7703C1226.45 48.6382 1217.91 38.8032 1207.38 38.8032C1196.85 38.8032 1188.32 48.6382 1188.32 60.7703C1188.32 72.9024 1196.85 82.7374 1207.38 82.7374Z" fill="#F7F7F7"/>
<path d="M1218.9 90.7609C1229.43 90.7609 1237.97 80.9259 1237.97 68.7938C1237.97 56.6617 1229.43 46.8267 1218.9 46.8267C1208.37 46.8267 1199.83 56.6617 1199.83 68.7938C1199.83 80.9259 1208.37 90.7609 1218.9 90.7609Z" fill="#F7F7F7"/>
<path d="M1440 56.0383H719.5V105.877H1440V56.0383Z" fill="#F7F7F7"/>
</svg>
