<svg width="135" height="33" viewBox="0 0 135 33" fill="none" xmlns="http://www.w3.org/2000/svg">
<path d="M58.381 20.5064C58.2485 21.9105 57.7302 23.0074 56.8262 23.7968C55.9222 24.5803 54.7199 24.972 53.2193 24.972C52.1707 24.972 51.2457 24.7249 50.4441 24.2307C49.6486 23.7305 49.0339 23.0224 48.6 22.1064C48.1661 21.1904 47.9401 20.1267 47.9221 18.9154V17.686C47.9221 16.4445 48.142 15.3507 48.582 14.4045C49.0219 13.4584 49.6517 12.7292 50.4713 12.2169C51.2969 11.7047 52.2491 11.4485 53.3278 11.4485C54.7802 11.4485 55.9494 11.8433 56.8353 12.6327C57.7211 13.4222 58.2364 14.5371 58.381 15.9774H56.103C55.9946 15.0313 55.7173 14.3503 55.2714 13.9345C54.8314 13.5126 54.1836 13.3017 53.3278 13.3017C52.3335 13.3017 51.5681 13.6663 51.0317 14.3955C50.5014 15.1187 50.2302 16.1823 50.2182 17.5865V18.7526C50.2182 20.1749 50.4713 21.2597 50.9775 22.007C51.4897 22.7542 52.237 23.1279 53.2193 23.1279C54.1173 23.1279 54.7923 22.926 55.2443 22.5222C55.6962 22.1184 55.9825 21.4465 56.103 20.5064H58.381ZM65.9611 23.833C65.3162 24.5923 64.4002 24.972 63.213 24.972C62.1523 24.972 61.3478 24.6616 60.7994 24.0409C60.257 23.4202 59.9858 22.5222 59.9858 21.3471V15.0102H62.1824V21.3199C62.1824 22.5614 62.6977 23.1821 63.7282 23.1821C64.7949 23.1821 65.5151 22.7994 65.8887 22.0341V15.0102H68.0854V24.7912H66.0153L65.9611 23.833ZM72.2032 15.0102L72.2665 16.0317C72.9535 15.2302 73.8936 14.8294 75.0869 14.8294C76.3946 14.8294 77.2896 15.3296 77.7717 16.33C78.4828 15.3296 79.4832 14.8294 80.7729 14.8294C81.8516 14.8294 82.6531 15.1277 83.1774 15.7243C83.7078 16.321 83.979 17.2008 83.991 18.3639V24.7912H81.7944V18.4272C81.7944 17.8065 81.6588 17.3515 81.3876 17.0622C81.1164 16.7729 80.6674 16.6283 80.0407 16.6283C79.5405 16.6283 79.1307 16.7639 78.8112 17.0351C78.4979 17.3003 78.2779 17.6498 78.1513 18.0837L78.1604 24.7912H75.9637V18.3549C75.9336 17.2038 75.346 16.6283 74.201 16.6283C73.3211 16.6283 72.6974 16.9869 72.3297 17.704V24.7912H70.1331V15.0102H72.2032ZM91.9869 23.833C91.342 24.5923 90.426 24.972 89.2388 24.972C88.1781 24.972 87.3736 24.6616 86.8252 24.0409C86.2828 23.4202 86.0116 22.5222 86.0116 21.3471V15.0102H88.2083V21.3199C88.2083 22.5614 88.7235 23.1821 89.7541 23.1821C90.8207 23.1821 91.5409 22.7994 91.9146 22.0341V15.0102H94.1112V24.7912H92.0411L91.9869 23.833ZM98.5002 24.7912H96.3035V10.9061H98.5002V24.7912ZM106.641 23.833C105.996 24.5923 105.08 24.972 103.893 24.972C102.832 24.972 102.027 24.6616 101.479 24.0409C100.937 23.4202 100.665 22.5222 100.665 21.3471V15.0102H102.862V21.3199C102.862 22.5614 103.377 23.1821 104.408 23.1821C105.475 23.1821 106.195 22.7994 106.568 22.0341V15.0102H108.765V24.7912H106.695L106.641 23.833ZM116.3 22.1335C116.3 21.7418 116.137 21.4435 115.812 21.2386C115.492 21.0337 114.959 20.8529 114.212 20.6962C113.464 20.5395 112.841 20.3406 112.34 20.0996C111.244 19.5692 110.695 18.8009 110.695 17.7944C110.695 16.9507 111.051 16.2456 111.762 15.6791C112.473 15.1126 113.377 14.8294 114.474 14.8294C115.643 14.8294 116.586 15.1187 117.303 15.6972C118.026 16.2758 118.388 17.0261 118.388 17.9481H116.191C116.191 17.5263 116.035 17.1767 115.721 16.8995C115.408 16.6162 114.992 16.4746 114.474 16.4746C113.992 16.4746 113.597 16.5861 113.29 16.8091C112.988 17.0321 112.838 17.3304 112.838 17.704C112.838 18.0415 112.979 18.3037 113.262 18.4905C113.546 18.6773 114.118 18.8671 114.98 19.06C115.842 19.2468 116.517 19.4728 117.005 19.738C117.499 19.9971 117.864 20.3105 118.099 20.6781C118.34 21.0457 118.46 21.4917 118.46 22.016C118.46 22.8959 118.096 23.61 117.367 24.1584C116.637 24.7008 115.682 24.972 114.501 24.972C113.699 24.972 112.985 24.8274 112.358 24.5381C111.732 24.2488 111.244 23.8511 110.894 23.3448C110.545 22.8386 110.37 22.2932 110.37 21.7086H112.503C112.533 22.2269 112.729 22.6277 113.091 22.9109C113.452 23.1881 113.931 23.3268 114.528 23.3268C115.107 23.3268 115.547 23.2183 115.848 23.0013C116.149 22.7783 116.3 22.4891 116.3 22.1335Z" fill="#083D77"/>
<path d="M29.2628 28.9753H8.31952L5.26095 28.763C5.17776 28.7576 5.0951 28.7408 5.01411 28.7127C3.60251 28.2669 2.33742 27.1393 1.42636 25.515C0.515305 23.8907 0.0123706 21.866 6.00707e-05 19.7732C-0.0153678 14.7224 2.94292 10.5879 6.57618 10.5879H6.93488C6.95519 10.5907 6.97569 10.5872 6.99499 10.5775C7.01428 10.5679 7.03193 10.5524 7.04673 10.532C7.06086 10.5097 7.07132 10.483 7.07733 10.454C7.08334 10.4249 7.08474 10.3943 7.08144 10.3644C7.04401 9.97567 7.02596 9.58356 7.02744 9.19108C7.02744 4.1235 9.98187 0.000152943 13.6151 0.000152943C14.8443 -0.00988244 16.0513 0.47412 17.102 1.39834C18.1526 2.32257 19.0057 3.6508 19.5664 5.23535C19.5782 5.27311 19.5999 5.30255 19.6266 5.31722C19.6534 5.33188 19.683 5.33057 19.7091 5.31357C20.5547 4.7877 21.4656 4.51771 22.3859 4.52019C23.7095 4.50997 25.0049 5.0746 26.1049 6.14121C27.2049 7.20782 28.059 8.72747 28.557 10.5041C28.5663 10.5393 28.5836 10.569 28.606 10.5882C28.6284 10.6075 28.6546 10.6152 28.6804 10.6102C28.8694 10.6102 29.0661 10.5767 29.2551 10.5767C32.8961 10.5879 35.8544 14.7224 35.8544 19.7844C35.8544 24.8464 32.8961 28.9753 29.2628 28.9753ZM6.57618 12.264C3.57932 12.264 1.14172 15.6164 1.14172 19.7732C1.15602 21.4903 1.57315 23.1492 2.32456 24.4773C3.07597 25.8055 4.11695 26.7237 5.27638 27.0813H5.31881L8.34652 27.2936H29.2628C32.2597 27.2936 34.6973 23.9413 34.6973 19.7788C34.6973 15.6164 32.2597 12.264 29.2628 12.264C29.1008 12.264 28.9427 12.264 28.7846 12.264C28.5138 12.3043 28.2413 12.2174 28.0073 12.0162C27.7732 11.815 27.5901 11.5101 27.4848 11.1466C27.0718 9.68278 26.365 8.43218 25.456 7.55662C24.547 6.68105 23.4775 6.22081 22.3859 6.23546C21.6225 6.23479 20.8669 6.45713 20.1643 6.88916C19.8664 7.07377 19.531 7.08633 19.227 6.92427C18.9229 6.76221 18.6732 6.43781 18.5289 6.01756C18.0642 4.7128 17.3591 3.62007 16.4917 2.86065C15.6243 2.10123 14.6286 1.70482 13.6151 1.71542C10.6221 1.71542 8.18453 5.06774 8.18453 9.23019C8.1851 9.54962 8.19927 9.8687 8.22696 10.1856C8.25098 10.459 8.23339 10.7368 8.17542 10.9993C8.11745 11.2619 8.02051 11.5028 7.8914 11.7053C7.75935 11.8973 7.6006 12.0465 7.42571 12.1428C7.25082 12.2391 7.06379 12.2805 6.87702 12.264H6.57618Z" fill="#083D77"/>
</svg>
