<svg width="135" height="33" viewBox="0 0 135 33" fill="none" xmlns="http://www.w3.org/2000/svg">
<path d="M58.381 20.5064C58.2485 21.9106 57.7302 23.0074 56.8262 23.7969C55.9222 24.5803 54.7199 24.9721 53.2193 24.9721C52.1707 24.9721 51.2457 24.725 50.4441 24.2308C49.6486 23.7306 49.0339 23.0225 48.6 22.1065C48.1661 21.1904 47.9401 20.1267 47.9221 18.9154V17.686C47.9221 16.4446 48.142 15.3507 48.582 14.4046C49.0219 13.4584 49.6517 12.7292 50.4713 12.217C51.2969 11.7047 52.2491 11.4486 53.3278 11.4486C54.7802 11.4486 55.9494 11.8433 56.8353 12.6328C57.7211 13.4223 58.2364 14.5372 58.381 15.9775H56.103C55.9946 15.0313 55.7173 14.3503 55.2714 13.9345C54.8314 13.5127 54.1836 13.3017 53.3278 13.3017C52.3335 13.3017 51.5681 13.6663 51.0317 14.3955C50.5014 15.1187 50.2302 16.1824 50.2182 17.5866V18.7527C50.2182 20.175 50.4713 21.2597 50.9775 22.007C51.4897 22.7543 52.237 23.1279 53.2193 23.1279C54.1173 23.1279 54.7923 22.9261 55.2443 22.5223C55.6962 22.1185 55.9825 21.4466 56.103 20.5064H58.381ZM65.9611 23.833C65.3162 24.5924 64.4002 24.9721 63.213 24.9721C62.1523 24.9721 61.3478 24.6617 60.7994 24.041C60.257 23.4202 59.9858 22.5223 59.9858 21.3471V15.0102H62.1824V21.32C62.1824 22.5615 62.6977 23.1822 63.7282 23.1822C64.7949 23.1822 65.5151 22.7995 65.8887 22.0341V15.0102H68.0854V24.7913H66.0153L65.9611 23.833ZM72.2032 15.0102L72.2665 16.0317C72.9535 15.2302 73.8936 14.8295 75.0869 14.8295C76.3946 14.8295 77.2896 15.3297 77.7717 16.3301C78.4828 15.3297 79.4832 14.8295 80.7729 14.8295C81.8516 14.8295 82.6531 15.1278 83.1774 15.7244C83.7078 16.321 83.979 17.2009 83.991 18.364V24.7913H81.7944V18.4273C81.7944 17.8065 81.6588 17.3515 81.3876 17.0623C81.1164 16.773 80.6674 16.6284 80.0407 16.6284C79.5405 16.6284 79.1307 16.764 78.8112 17.0352C78.4979 17.3003 78.2779 17.6499 78.1513 18.0838L78.1604 24.7913H75.9637V18.355C75.9336 17.2039 75.346 16.6284 74.201 16.6284C73.3211 16.6284 72.6974 16.9869 72.3297 17.7041V24.7913H70.1331V15.0102H72.2032ZM91.9869 23.833C91.342 24.5924 90.426 24.9721 89.2388 24.9721C88.1781 24.9721 87.3736 24.6617 86.8252 24.041C86.2828 23.4202 86.0116 22.5223 86.0116 21.3471V15.0102H88.2083V21.32C88.2083 22.5615 88.7235 23.1822 89.7541 23.1822C90.8207 23.1822 91.5409 22.7995 91.9146 22.0341V15.0102H94.1112V24.7913H92.0411L91.9869 23.833ZM98.5002 24.7913H96.3035V10.9062H98.5002V24.7913ZM106.641 23.833C105.996 24.5924 105.08 24.9721 103.893 24.9721C102.832 24.9721 102.027 24.6617 101.479 24.041C100.937 23.4202 100.665 22.5223 100.665 21.3471V15.0102H102.862V21.32C102.862 22.5615 103.377 23.1822 104.408 23.1822C105.475 23.1822 106.195 22.7995 106.568 22.0341V15.0102H108.765V24.7913H106.695L106.641 23.833ZM116.3 22.1336C116.3 21.7419 116.137 21.4435 115.812 21.2386C115.492 21.0337 114.959 20.8529 114.212 20.6963C113.464 20.5396 112.841 20.3407 112.34 20.0996C111.244 19.5693 110.695 18.8009 110.695 17.7945C110.695 16.9508 111.051 16.2457 111.762 15.6792C112.473 15.1127 113.377 14.8295 114.474 14.8295C115.643 14.8295 116.586 15.1187 117.303 15.6973C118.026 16.2758 118.388 17.0261 118.388 17.9482H116.191C116.191 17.5263 116.035 17.1768 115.721 16.8996C115.408 16.6163 114.992 16.4747 114.474 16.4747C113.992 16.4747 113.597 16.5862 113.29 16.8092C112.988 17.0321 112.838 17.3305 112.838 17.7041C112.838 18.0416 112.979 18.3037 113.262 18.4906C113.546 18.6774 114.118 18.8672 114.98 19.0601C115.842 19.2469 116.517 19.4729 117.005 19.738C117.499 19.9972 117.864 20.3106 118.099 20.6782C118.34 21.0458 118.46 21.4918 118.46 22.0161C118.46 22.8959 118.096 23.6101 117.367 24.1585C116.637 24.7009 115.682 24.9721 114.501 24.9721C113.699 24.9721 112.985 24.8274 112.358 24.5381C111.732 24.2489 111.244 23.8511 110.894 23.3449C110.545 22.8387 110.37 22.2933 110.37 21.7087H112.503C112.533 22.227 112.729 22.6277 113.091 22.911C113.452 23.1882 113.931 23.3268 114.528 23.3268C115.107 23.3268 115.547 23.2183 115.848 23.0014C116.149 22.7784 116.3 22.4891 116.3 22.1336Z" fill="#BBC9E6"/>
<path d="M29.2628 28.9753H8.31952L5.26095 28.763C5.17776 28.7576 5.0951 28.7408 5.01411 28.7127C3.60251 28.2669 2.33742 27.1393 1.42636 25.515C0.515305 23.8907 0.0123706 21.866 6.00707e-05 19.7732C-0.0153678 14.7224 2.94292 10.5879 6.57618 10.5879H6.93488C6.95519 10.5907 6.97569 10.5872 6.99499 10.5775C7.01428 10.5679 7.03193 10.5524 7.04673 10.532C7.06086 10.5097 7.07132 10.483 7.07733 10.454C7.08334 10.4249 7.08474 10.3943 7.08144 10.3644C7.04401 9.97567 7.02596 9.58356 7.02744 9.19108C7.02744 4.1235 9.98187 0.000152943 13.6151 0.000152943C14.8443 -0.00988244 16.0513 0.47412 17.102 1.39834C18.1526 2.32257 19.0057 3.6508 19.5664 5.23535C19.5782 5.27311 19.5999 5.30255 19.6266 5.31722C19.6534 5.33188 19.683 5.33057 19.7091 5.31357C20.5547 4.7877 21.4656 4.51771 22.3859 4.52019C23.7095 4.50997 25.0049 5.0746 26.1049 6.14121C27.2049 7.20782 28.059 8.72747 28.557 10.5041C28.5663 10.5393 28.5836 10.569 28.606 10.5882C28.6284 10.6075 28.6546 10.6152 28.6804 10.6102C28.8694 10.6102 29.0661 10.5767 29.2551 10.5767C32.8961 10.5879 35.8544 14.7224 35.8544 19.7844C35.8544 24.8464 32.8961 28.9753 29.2628 28.9753ZM6.57618 12.264C3.57932 12.264 1.14172 15.6164 1.14172 19.7732C1.15602 21.4903 1.57315 23.1492 2.32456 24.4773C3.07597 25.8055 4.11695 26.7237 5.27638 27.0813H5.31881L8.34652 27.2936H29.2628C32.2597 27.2936 34.6973 23.9413 34.6973 19.7788C34.6973 15.6164 32.2597 12.264 29.2628 12.264C29.1008 12.264 28.9427 12.264 28.7846 12.264C28.5138 12.3043 28.2413 12.2174 28.0073 12.0162C27.7732 11.815 27.5901 11.5101 27.4848 11.1466C27.0718 9.68278 26.365 8.43218 25.456 7.55662C24.547 6.68105 23.4775 6.22081 22.3859 6.23546C21.6225 6.23479 20.8669 6.45713 20.1643 6.88916C19.8664 7.07377 19.531 7.08633 19.227 6.92427C18.9229 6.76221 18.6732 6.43781 18.5289 6.01756C18.0642 4.7128 17.3591 3.62007 16.4917 2.86065C15.6243 2.10123 14.6286 1.70482 13.6151 1.71542C10.6221 1.71542 8.18453 5.06774 8.18453 9.23019C8.1851 9.54962 8.19927 9.8687 8.22696 10.1856C8.25098 10.459 8.23339 10.7368 8.17542 10.9993C8.11745 11.2619 8.02051 11.5028 7.8914 11.7053C7.75935 11.8973 7.6006 12.0465 7.42571 12.1428C7.25082 12.2391 7.06379 12.2805 6.87702 12.264H6.57618Z" fill="#BBC9E6"/>
</svg>
