<svg width="45" height="45" viewBox="0 0 45 45" fill="none" xmlns="http://www.w3.org/2000/svg">
<path fill-rule="evenodd" clip-rule="evenodd" d="M30.3086 38.9832C29.7729 38.8982 29.2959 38.872 29.2959 38.5844C29.2959 38.4733 29.361 38.3559 29.4656 38.2777C29.5574 38.2055 29.799 38.1794 29.9622 38.1794C30.1324 38.1794 30.3023 38.2644 30.4067 38.3755C30.4718 38.4539 30.5503 38.5781 30.5636 38.7089H31.4327C31.4131 38.3888 31.2758 38.075 31.0274 37.8985C30.7858 37.722 30.472 37.5063 30.0406 37.5063C29.6293 37.5063 29.224 37.5196 28.9431 37.7286C28.6618 37.931 28.4594 38.2707 28.4594 38.5651C28.4594 38.735 28.4466 38.9374 28.512 39.0614C28.5841 39.1856 28.7928 39.4407 28.956 39.5386C29.1848 39.6693 29.7206 39.7216 30.0147 39.8C30.2563 39.8586 30.5505 39.8719 30.6161 40.1138C30.6548 40.2574 30.6093 40.3881 30.4788 40.4731C30.3544 40.5578 30.1651 40.6167 29.9559 40.6167C29.7402 40.6167 29.531 40.5515 29.4264 40.4208C29.3351 40.2966 29.2828 40.1789 29.2107 39.9894H28.3415C28.3611 40.3879 28.5836 40.7801 28.8577 41.0023C29.1257 41.218 29.4852 41.3224 29.9423 41.3224C30.4001 41.3224 30.7987 41.2439 31.0928 41.0348C31.38 40.8258 31.5368 40.4339 31.5368 40.1138C31.5368 39.8393 31.4584 39.6235 31.3344 39.4538C31.0797 39.1204 30.6224 39.0292 30.3086 38.9832ZM18.9779 41.2183H19.8601V37.5586H18.9779V41.2183ZM18.9779 37.3105H19.8666V36.4282H18.9779V37.3105ZM17.6906 38.0423C17.364 37.7872 16.9459 37.6109 16.4883 37.5978H16.4425C15.4296 37.5978 14.6064 38.4212 14.6064 39.4277C14.6064 40.4404 15.4296 41.2703 16.4425 41.2703H16.4883C16.9456 41.264 17.3637 41.0808 17.6843 40.7672L17.6906 41.2185H18.5271V36.4285H17.6906V38.0423ZM16.4948 40.5188H16.4883C16.199 40.5183 15.9218 40.4032 15.7173 40.1987C15.5127 39.9942 15.3976 39.7169 15.3971 39.4277C15.3971 38.8331 15.8871 38.3365 16.4883 38.3365H16.4948C17.0894 38.3365 17.586 38.8265 17.586 39.4277C17.586 40.0288 17.0894 40.5188 16.4948 40.5188ZM23.1663 38.029C22.8399 37.7741 22.4216 37.5976 21.964 37.5848H21.9182C20.9055 37.5848 20.0756 38.4147 20.0756 39.4209C20.0756 40.4339 20.9055 41.2638 21.9182 41.2638H21.964C22.4213 41.2507 22.8329 41.0677 23.16 40.7539V41.205H23.9962V36.4219H23.16L23.1663 38.029ZM21.9642 40.5123C21.3631 40.5123 20.8665 40.0157 20.8665 39.4146C20.8665 38.8197 21.3631 38.33 21.9642 38.33C22.5654 38.33 23.0622 38.82 23.0622 39.4146C23.0619 40.0157 22.5654 40.5123 21.9642 40.5123ZM13.43 37.5586V37.9051C13.2601 37.722 13.1819 37.6634 12.9858 37.5913C12.8093 37.5262 12.5674 37.4671 12.3321 37.4606H12.2931C12.012 37.4606 11.7638 37.5061 11.5416 37.5976C11.3259 37.6894 11.1232 37.8329 10.9404 38.029C10.777 38.1992 10.6465 38.4079 10.5485 38.637C10.4618 38.8666 10.4175 39.1101 10.4177 39.3555C10.4177 39.9112 10.6008 40.375 10.9666 40.7343C11.3261 41.1001 11.7835 41.2899 12.3323 41.2899H12.3388C12.5611 41.2899 12.8027 41.2246 12.9988 41.1524C13.1947 41.0805 13.3387 41.0217 13.43 40.8912V41.2246L14.2796 41.2183L14.273 37.5523L13.43 37.5586ZM12.3388 40.46H12.3323C12.1898 40.4604 12.0486 40.4326 11.9168 40.3782C11.785 40.3238 11.6653 40.2439 11.5645 40.1431C11.4637 40.0424 11.3839 39.9226 11.3295 39.7909C11.2751 39.6591 11.2473 39.5179 11.2477 39.3754C11.248 39.0878 11.3624 38.8122 11.5658 38.6088C11.7691 38.4055 12.0448 38.2911 12.3323 38.2907H12.3388C12.9335 38.2907 13.4235 38.7808 13.4235 39.3754C13.4231 39.6629 13.3087 39.9386 13.1054 40.1419C12.9021 40.3452 12.6264 40.4596 12.3388 40.46ZM27.2898 37.5456L27.2961 37.8918C27.1264 37.7155 27.0417 37.6564 26.8521 37.578C26.6418 37.5038 26.4215 37.462 26.1986 37.454H26.1594C25.8781 37.454 25.6299 37.4996 25.4079 37.5848C25.1854 37.6765 24.983 37.8266 24.8066 38.0162C24.6368 38.1862 24.5061 38.3951 24.4143 38.6307C24.325 38.8598 24.2785 39.1033 24.2771 39.3492C24.2771 39.8983 24.4666 40.362 24.8329 40.728C25.1854 41.0873 25.6496 41.2769 26.1986 41.2769C26.4272 41.2769 26.6688 41.2183 26.8584 41.1398C27.0545 41.0677 27.2048 41.0089 27.2961 40.8784V41.2117L28.1457 41.2052L28.1328 37.5458H27.2898V37.5456ZM26.1986 40.4535C25.5973 40.4469 25.107 39.9632 25.107 39.3621C25.107 38.7675 25.5973 38.284 26.1986 38.2774C26.7996 38.2774 27.2898 38.7675 27.2898 39.3621C27.2898 39.9634 26.7996 40.4535 26.1986 40.4535ZM32.2757 35.6114C32.269 35.6114 32.2624 35.6051 32.2624 35.6051C31.6937 35.6051 31.2301 36.0689 31.2301 36.6374C31.2301 37.2059 31.6937 37.6637 32.2624 37.6637H32.2757C32.8374 37.6569 33.2948 37.1996 33.2948 36.6374C33.2948 36.0753 32.8374 35.6179 32.2757 35.6114ZM32.2757 37.4998C32.1624 37.4999 32.0502 37.4777 31.9455 37.4345C31.8408 37.3912 31.7456 37.3277 31.6655 37.2476C31.5854 37.1675 31.5218 37.0723 31.4785 36.9676C31.4352 36.8629 31.413 36.7507 31.4131 36.6374C31.4131 36.1735 31.7983 35.7813 32.2757 35.7879C32.7527 35.7879 33.1379 36.1733 33.1379 36.6439C33.1379 37.1144 32.7527 37.4998 32.2757 37.4998Z" fill="#BDBDBD"/>
<path fill-rule="evenodd" clip-rule="evenodd" d="M32.5762 36.8071C32.5386 36.77 32.497 36.7372 32.4522 36.7093C32.5503 36.696 32.6282 36.6568 32.6742 36.5979C32.7197 36.5524 32.7527 36.4805 32.7527 36.4018C32.7527 36.3367 32.7263 36.2711 32.7001 36.219C32.6663 36.1734 32.6212 36.1374 32.5692 36.1145C32.5171 36.0948 32.4319 36.0885 32.3079 36.0885H31.831V37.2056H32.0598V36.7352H32.099C32.1511 36.7352 32.1903 36.7417 32.2162 36.7483C32.2426 36.7551 32.2559 36.7679 32.2755 36.7877C32.2755 36.794 32.2818 36.794 32.2818 36.8008C32.3077 36.8139 32.3469 36.8727 32.4058 36.9577L32.5689 37.2056H32.8369L32.6997 36.9901C32.6478 36.9052 32.6021 36.8333 32.5762 36.8071ZM32.2757 36.5592H32.06V36.2781H32.2757C32.3409 36.2781 32.3866 36.2781 32.3997 36.2846C32.4319 36.2866 32.4621 36.3006 32.4844 36.3239C32.5103 36.3432 32.5173 36.3762 32.5173 36.4086C32.5173 36.4411 32.5106 36.4807 32.491 36.5001C32.4718 36.5134 32.4522 36.5328 32.4321 36.5459C32.4062 36.5524 32.3542 36.5524 32.2757 36.5592ZM18.8929 30.6649H11.4372C13.6653 32.0437 16.2728 32.9586 19.2393 33.5728L18.8929 30.6649ZM24.578 30.6714L24.1335 33.4026C27.1133 32.8538 29.7402 31.9914 32.0208 30.6714H24.578ZM23.7217 30.6584L19.6247 30.6647C20.1998 31.8604 20.9319 32.8668 21.7681 33.8275C22.5915 32.8472 23.1404 31.8345 23.7217 30.6584ZM34.7457 28.8418L8.66657 28.8285C7.79741 28.1359 7.20934 27.7766 6.51014 26.8551H36.9343C36.255 27.6003 35.4776 28.2731 34.7457 28.8418ZM38.6332 24.5943L4.92871 24.6074C4.47791 23.9801 3.9615 23.0981 3.64143 22.3989H39.9209C39.5812 23.1829 39.1234 23.9082 38.6332 24.5943ZM14.5146 20.0072L2.74613 20.0137C1.66803 17.5239 0.988444 14.9559 0.661606 11.7671C6.72585 12.8452 11.4045 15.335 14.5146 20.0072ZM26.571 20.0268H16.8933C16.6776 13.7993 18.4028 7.48039 21.7354 3.6774C25.1203 7.38258 26.8717 13.6751 26.571 20.0268ZM40.914 20.0137L28.9165 20.0202C32.2295 15.3612 36.9866 12.7278 43.1487 11.7933C42.7635 14.9104 42.0444 17.5566 40.914 20.0137ZM42.0444 6.35677C42.0316 6.35023 42.0185 6.35023 42.0052 6.35023C40.7376 6.35023 39.6921 7.38935 39.6921 8.65701C39.6921 9.92468 40.7378 10.9636 42.0052 10.9636H42.0444C43.3126 10.9442 44.3384 9.9116 44.3384 8.65701C44.3384 7.40219 43.3123 6.37615 42.0444 6.35677ZM42.0444 10.604C40.9862 10.604 40.117 9.72834 40.117 8.66985C40.117 7.6242 40.9862 6.74221 42.0444 6.75528C43.1165 6.75528 43.9786 7.62444 43.9786 8.67639C43.9786 9.74141 43.1165 10.604 42.0444 10.604Z" fill="#BDBDBD"/>
<path fill-rule="evenodd" clip-rule="evenodd" d="M42.7175 9.04221C42.6367 8.96048 42.547 8.88812 42.45 8.8265C42.6657 8.79381 42.8352 8.72191 42.9528 8.58464C43.0577 8.47351 43.1165 8.31663 43.1165 8.13384C43.1165 7.98349 43.064 7.84622 42.9988 7.72856C42.9267 7.62397 42.8156 7.53269 42.6979 7.50001C42.5807 7.44771 42.3846 7.4218 42.1101 7.4218H41.0647V9.93728H41.5549V8.88533H41.6593C41.7769 8.88533 41.8617 8.89163 41.9205 8.91148C41.9597 8.93109 42.0052 8.95723 42.0445 8.99645C42.0512 9.00299 42.0645 9.00953 42.0708 9.01606C42.1101 9.07489 42.2014 9.19256 42.3384 9.38866L42.6977 9.93751H43.3056L43.0051 9.45403C42.8875 9.25792 42.7831 9.10758 42.7175 9.04221ZM42.0445 8.48028H41.5547V7.85953H42.0445C42.1885 7.85953 42.2866 7.85953 42.319 7.86606C42.4108 7.8726 42.4759 7.91836 42.5151 7.96411C42.5676 8.0031 42.5807 8.08178 42.5807 8.15998C42.5807 8.22535 42.5674 8.30379 42.5347 8.35609C42.4955 8.39531 42.45 8.43453 42.3846 8.45414C42.3321 8.46721 42.2277 8.47375 42.0445 8.48028Z" fill="#BDBDBD"/>
</svg>
