<svg width="34" height="48" viewBox="0 0 34 48" fill="none" xmlns="http://www.w3.org/2000/svg">
<path d="M18.7596 4.13118C21.4998 0.0200425 25.3094 0 25.3094 0C25.3094 0 25.8761 3.86516 23.1538 7.58855C20.2471 11.5643 16.9432 10.9137 16.9432 10.9137C16.9432 10.9137 16.3228 7.78695 18.7596 4.13118ZM17.2917 13.6213C18.7014 13.6213 21.3178 11.4155 24.7234 11.4155C30.5855 11.4155 32.8917 16.1635 32.8917 16.1635C32.8917 16.1635 28.3812 18.7885 28.3812 25.1578C28.3812 32.3429 34 34.8191 34 34.8191C34 34.8191 30.0723 47.4028 24.767 47.4028C22.3304 47.4028 20.436 45.5337 17.8686 45.5337C15.2522 45.5337 12.6558 47.4725 10.9648 47.4725C6.12028 47.4727 0 35.5358 0 25.9405C0 16.5001 5.18042 11.5478 10.0394 11.5478C13.1982 11.5478 15.6495 13.6213 17.2917 13.6213Z" fill="#BDBDBD"/>
</svg>
