<svg width="45" height="15" viewBox="0 0 45 15" fill="none" xmlns="http://www.w3.org/2000/svg">
<g clip-path="url(#clip0)">
<path d="M17.2806 13.0842C15.6061 11.9867 13.3337 11.7941 9.66886 12.8286C5.7619 13.7628 4.45927 14.3616 2.74854 13.1595C2.09131 12.569 1.85568 11.6181 2.03163 10.2485C2.43972 8.01578 3.54256 5.86715 5.50152 3.48379C6.59491 2.24398 7.60921 1.17999 8.94847 0.752734C9.97492 0.484705 9.87895 1.3055 9.75475 1.42289C9.62369 1.42289 9.40353 1.4439 9.23337 1.55688C9.09528 1.66585 8.71621 2.01773 8.69585 2.49106C8.66648 3.21565 9.40342 3.06483 9.72129 2.667C10.0639 2.21868 10.5703 1.36016 10.172 0.560025C10.005 0.275227 9.71656 0.0783976 9.35842 0.0113761C8.13205 -0.059938 6.98995 0.5349 5.93583 1.19252C3.63059 2.82193 1.78655 5.07971 0.743111 7.5511C0.141573 9.04222 -0.402477 11.1782 0.412979 12.9167C1.04388 14.123 2.35355 14.7637 3.91612 14.6297C5.01204 14.5126 6.33723 14.1522 7.22851 13.9346C8.11985 13.7166 12.6822 12.1209 14.1812 14.8982C14.1812 14.8982 14.6797 13.9136 15.9255 13.8926C16.9497 13.7964 18.4273 14.1942 19.5032 14.9983C19.1447 14.4498 18.1284 13.6414 17.2806 13.0842Z" fill="#BDBDBD"/>
<path d="M10.134 3.76247C9.28071 3.19281 7.56565 4.28187 6.19197 6.14995C4.93579 7.8256 4.39337 9.77311 4.98372 10.6737C5.86178 11.7334 7.49196 10.192 8.18519 9.36698L8.27462 9.27054C8.74605 8.75531 9.11022 8.13535 9.46279 7.54046C9.46279 7.54046 9.78679 6.99593 9.80226 6.97074C10.0025 6.9332 10.2437 6.87453 10.5155 6.79492C10.5116 6.8074 9.47562 8.57926 9.58131 9.45872C9.61422 9.72704 9.58913 10.7072 10.5296 11.0045C11.783 11.2183 12.784 10.2296 13.667 9.34998C13.667 9.34998 13.8174 9.20352 13.9025 9.1199C13.881 9.20758 13.8529 9.32463 13.8529 9.32463C13.486 10.6232 13.9806 10.8957 14.2901 10.9962C15.2252 11.2728 16.3424 9.89044 16.346 9.89044C16.317 10.3259 16.2324 10.6861 16.6835 10.9752C17.1092 11.1303 17.5402 10.8938 17.8678 10.6718C19.0476 9.82571 19.9981 8.50142 20.7658 7.35679H20.2761C20.2703 7.35679 19.0678 9.13037 18.2868 9.51585C18.2856 9.51585 18.1435 9.59008 18.0616 9.53136C17.9602 9.44339 18.0002 9.26041 18.0628 9.13083C18.0667 9.12242 21.078 3.80826 21.078 3.80826H19.6562C19.6562 3.80826 19.5009 4.06392 19.4883 4.08069C19.4787 4.07234 19.4559 4.02838 19.4402 4.00732C18.5593 2.7675 16.5645 4.67456 15.0627 6.88609C14.4845 7.73648 13.7484 8.69396 12.9851 9.38506C12.9851 9.38506 11.8542 10.4398 11.3711 9.682C11.1944 9.3636 11.2488 8.89811 11.3484 8.59242C11.911 6.96296 12.8803 5.48419 13.9834 4.59197C14.2948 4.345 14.6333 4.27357 14.8012 4.37831C14.9613 4.47481 14.9871 4.71336 14.8859 4.87676C14.629 4.86841 14.4231 4.94785 14.2558 5.12379C13.9262 5.47567 13.8116 5.81501 13.9164 6.1334C14.4256 6.87058 15.4409 5.41288 15.3918 4.52489C15.3743 4.20649 15.2074 3.90498 14.9582 3.75823C14.5869 3.53216 14.0204 3.59071 13.6539 3.77094C13.1631 3.95935 12.3863 4.61692 11.9329 5.12802C11.3621 5.76899 10.383 6.48099 10.0769 6.40126C10.177 6.12894 11.0039 4.40744 10.134 3.76247ZM16.9887 6.30917C17.2653 5.91969 18.0703 4.87665 18.2665 4.70077C18.9266 4.10994 19.1904 4.3699 19.2132 4.55408C18.5972 5.67662 17.8702 6.96262 17.1866 8.11875C17.1881 8.11463 16.9727 8.44962 16.9727 8.44962C16.6708 8.9186 16.3669 9.32079 15.871 9.60135C15.8003 9.62247 15.6838 9.63089 15.6062 9.57199C15.5128 9.50915 15.476 9.40441 15.4865 9.29549C15.5162 8.93537 15.8766 7.83395 16.9887 6.30917ZM9.25405 6.98351C9.25405 6.98351 9.24162 7.02134 9.23554 7.0337C9.23397 7.0337 8.61561 8.0598 8.61561 8.0598C8.24245 8.56673 7.77653 9.20357 7.19412 9.50921C7.02149 9.56781 6.78282 9.60565 6.6612 9.45077C6.40341 9.13655 6.53627 8.70088 6.64422 8.34912L6.68247 8.22343C6.99195 7.36904 7.48296 6.61492 7.96097 5.9154C7.96694 5.91128 7.98032 5.9071 7.98516 5.9071C7.98634 5.91128 7.98825 5.91128 7.98904 5.91969C8.28897 6.506 8.85135 6.77815 9.27194 6.90401C9.27447 6.90401 9.27722 6.90819 9.27722 6.9166C9.27728 6.92908 9.27042 6.94596 9.25405 6.98351ZM9.83983 5.77311C9.83708 5.78147 9.56444 6.41815 9.56444 6.41815C9.525 6.45163 9.46268 6.43492 9.39124 6.41815L9.26884 6.39708C8.88449 6.27569 8.59457 6.01596 8.50519 5.70604C8.38195 5.10284 8.88837 4.62951 9.11145 4.45787C9.32554 4.30694 9.65837 4.22738 9.85165 4.38243C9.97084 4.52489 10.016 4.70913 10.016 4.9103C10.0161 5.18245 9.93349 5.4882 9.83983 5.77311ZM27.814 7.71651C27.6768 7.415 27.3514 7.22229 27.0046 7.24318C25.8783 7.34798 24.7766 8.2904 24.1982 9.64325C23.8946 10.3386 23.729 10.9124 23.6204 11.8255C23.9706 11.4152 24.685 10.7408 25.4957 10.3722C25.4957 10.3722 25.606 9.49679 26.1685 8.71765C26.3813 8.39502 26.8073 7.87568 27.2855 8.01384C27.7035 8.1563 27.5566 9.33338 27.0011 10.4725C26.5902 11.3103 25.9613 12.1483 25.325 12.7262C24.7625 13.212 23.9301 13.7985 23.2019 13.3461C22.7432 13.0698 22.5093 12.4916 22.5587 11.746C22.7778 9.63083 23.7242 7.82966 25.0784 5.77723C26.4748 3.87138 28.014 1.91528 30.0875 0.872128C30.5105 0.654351 30.9021 0.6041 31.2407 0.738143C31.2407 0.738143 29.2942 1.8272 28.3664 3.84202C28.1304 4.35313 27.8021 5.04406 28.1327 5.65567C28.3054 5.97395 28.6121 5.99913 28.8591 5.98236C29.9964 5.71422 30.7312 4.63358 31.3316 3.64514C31.6796 2.89537 31.989 2.14977 31.989 1.32039C31.989 1.21988 31.9839 1.0859 31.9756 0.985281C32.5189 0.692183 33.6331 1.21147 33.6331 1.21147C34.5038 1.5048 36.3578 2.94997 36.9832 3.2263C37.2882 2.86612 37.7895 2.32165 38.0718 2.04933L37.6632 1.79377C37.009 1.38747 36.3175 1.00205 35.6369 0.620926C34.0912 -0.237647 32.833 0.0638637 32.1927 0.298468C31.9411 0.390558 31.7111 0.470171 31.7111 0.470171C31.2359 -0.0575878 30.4565 -0.00745043 29.8823 0.135063C27.8171 0.7382 25.8997 2.20838 23.8441 4.75938C22.3327 6.75743 21.3953 8.48322 20.8956 10.1879C20.5105 11.3356 20.3934 13.0236 21.3335 14.0248C22.1327 14.8749 23.1925 14.6907 23.9409 14.3851C25.5624 13.5725 27.0198 11.8215 27.746 9.80665C27.9212 9.20775 28.1157 8.36166 27.814 7.71651ZM31.5426 1.40424C31.328 3.9091 29.4144 5.37946 28.9409 5.49656C28.6539 5.55511 28.1643 5.42536 28.6015 4.37413C29.2451 2.95821 30.344 1.75617 31.523 1.14039C31.5518 1.24513 31.551 1.31198 31.5426 1.40424ZM42.8937 1.72246C41.8644 2.31736 40.7974 2.7026 39.5057 2.56861C39.1478 2.97921 38.7992 3.40223 38.478 3.83779C40.2909 4.30694 42.2128 3.26396 43.2847 2.27134C44.4186 1.27019 45 0.00949097 45 0.00949097C45 0.00949097 44.1501 0.99793 42.8937 1.72246ZM23.441 3.80837H22.0908L21.3292 5.06753H22.6791L23.441 3.80837Z" fill="#BDBDBD"/>
<path d="M39.5003 13.1988C39.3552 13.2993 39.1512 13.2221 39.2274 12.9918C39.4174 12.4053 40.1726 11.2103 40.1726 11.2103L42.2762 7.41414H40.8353C40.7668 7.52861 40.6204 7.79143 40.6204 7.79143C40.5537 7.67845 40.3544 7.42725 40.2723 7.37293C39.9203 7.14657 39.4039 7.2536 39.0476 7.45878C37.4985 8.38043 36.3683 10.2013 35.4769 11.6214C35.4769 11.6214 34.5386 13.1999 34.0178 13.3173C33.6111 13.3508 33.6531 12.7935 33.6707 12.6636C33.8279 11.7252 34.193 10.8331 34.5609 10.0247C35.3091 9.4969 36.1629 8.8058 36.9389 8.04767C38.6229 6.40974 40.0426 4.55414 40.2501 4.13947C40.2501 4.13947 40.0255 4.1856 39.7603 4.1939C38.4647 6.03273 35.8135 8.70524 35.0098 9.10307C35.3659 8.23162 37.6664 4.0724 39.624 2.08281L39.9321 1.78113C40.4084 1.3078 40.902 0.821938 41.2866 0.742324C41.3272 0.738146 41.3795 0.742324 41.4247 0.838822C41.4419 1.20735 41.307 1.47968 41.1523 1.7896L40.9355 2.24204C40.9355 2.24204 41.2426 2.18337 41.4443 2.11618C41.6783 1.66821 41.9375 1.1654 41.8419 0.566558C41.8101 0.373849 41.6729 0.227272 41.4938 0.193732C40.9098 0.0806372 40.2734 0.520312 39.7612 0.876482L39.7406 0.888959C37.108 2.98752 34.885 6.01178 32.9415 10.1419C32.8006 10.2506 32.2564 10.3806 32.1639 10.3177C32.3559 9.91569 32.5975 9.37522 32.7184 8.7888C32.7393 8.62116 32.7588 8.44957 32.7588 8.28205C32.7588 7.92153 32.6737 7.58235 32.3564 7.34792C31.9842 7.15939 31.5243 7.24742 31.2141 7.3897C29.8249 7.97613 28.7866 9.42553 28.0373 10.6192C27.6343 11.3775 27.2325 12.1897 27.1212 13.1198C27.0429 13.8485 27.2024 14.3177 27.6097 14.5523C28.0284 14.77 28.5554 14.5437 28.7625 14.4349C30.1699 13.6809 31.1533 12.1689 31.9285 10.7866C31.9593 10.7824 32.3825 10.77 32.7027 10.6861C32.7069 10.6861 32.7087 10.6861 32.7158 10.6904C32.6975 10.753 32.532 11.2558 32.532 11.2558C32.0407 12.7217 31.8136 13.7187 32.2776 14.3093C32.9407 15.1428 34.0386 14.2801 34.9317 13.1406C34.74 14.506 35.4355 14.7198 35.9657 14.6151C36.5747 14.4477 37.2534 13.7857 37.5683 13.4465C37.4672 13.8444 37.4946 14.5566 38.0487 14.6277C38.4284 14.6991 38.7126 14.4889 39.0414 14.3088C40.2209 13.6553 41.6328 11.4777 41.9994 10.8481H41.5188C40.9976 11.6495 40.3345 12.7001 39.5003 13.1988ZM28.9131 13.053C28.8383 12.9398 28.8135 12.8162 28.811 12.6825C28.7966 11.8611 29.6651 10.3903 30.2781 9.58905H30.2794C30.5362 10.1614 31.118 10.5293 31.4691 10.6843C31.033 11.673 29.5372 13.7902 28.9131 13.053ZM31.7153 10.2424C31.6738 10.2719 30.9403 10.0204 30.7985 9.32932C30.6782 8.73431 31.0809 8.2694 31.4705 8.03508C31.6377 7.90092 31.8896 7.85502 32.0744 7.92175C32.2459 8.03926 32.2924 8.24885 32.2924 8.47464C32.2924 8.61315 32.2743 8.75543 32.2584 8.88524L32.2549 8.91466C32.132 9.37904 31.9507 9.82532 31.7153 10.2424ZM37.5989 12.7891C37.5983 12.7891 37.4597 12.9148 37.4597 12.9148C37.2618 13.0948 37.0582 13.2875 36.8124 13.1911C36.7445 13.166 36.6967 13.0739 36.6852 13.0025C36.6741 12.4873 36.902 12.0099 37.1232 11.545L37.1799 11.4235C37.816 10.3428 38.5553 9.06948 39.6412 8.18578C39.8242 8.05145 40.0227 7.93858 40.2323 8.02661C40.2805 8.07262 40.3367 8.15224 40.3367 8.23174C40.3367 8.25698 40.3146 8.32394 40.302 8.34483C39.9987 8.84351 39.7099 9.36698 39.429 9.86961C38.8801 10.8623 38.3107 11.8884 37.5989 12.7891Z" fill="#BDBDBD"/>
</g>
<defs>
<clipPath id="clip0">
<rect width="45" height="15" fill="white"/>
</clipPath>
</defs>
</svg>
