<svg width="45" height="44" viewBox="0 0 45 44" fill="none" xmlns="http://www.w3.org/2000/svg">
<path fill-rule="evenodd" clip-rule="evenodd" d="M20.9559 29.6182L9.96179 30.7742L12.1322 32.8446H27.6967L21.9264 29.5141L20.9559 29.6182ZM20.9559 21.0424L36.0972 17.0909C36.0972 17.0909 38.3031 16.9357 40.4913 12.087L20.9559 18.3507L5.76168 23.1991C5.76168 23.1991 4.45573 23.6132 3.944 23.9583C3.944 23.9583 3.59101 24.1656 3.59101 24.6484C3.59101 24.6484 3.62626 25.0109 3.891 25.2699L4.54398 25.9084L12.838 23.8031C12.838 23.8031 12.3262 23.1473 13.3497 23.0094L20.9559 21.0424ZM20.9559 28.7725C20.9734 28.9451 21.1147 29.1007 21.1147 29.1007L20.9559 29.1176L9.43231 30.3946L7.2439 28.3931L20.9557 25.9945L32.6731 23.9583C30.7499 27.6512 26.8673 27.6512 26.8673 27.6512L22.0322 28.255C21.2204 28.2724 20.9912 28.4792 20.9557 28.6867L20.9559 28.7725ZM20.9559 22.3881L36.9266 18.437C35.0384 22.6127 31.2443 22.7506 31.2443 22.7506L20.9559 24.7867L17.5853 25.4594C15.9616 25.4941 16.6676 26.3051 16.6676 26.3051L6.83815 27.9446L5.00295 26.357L20.9559 22.3881ZM20.9559 13.9506L43.2797 5.02966C43.2797 5.02966 42.5205 7.22126 42.044 8.34274C42.044 8.34274 41.4617 10.12 39.1326 10.8274L20.9559 17.1085L5.19695 22.5264C5.19695 22.5264 3.16776 23.234 2.83228 24.0624C2.83228 24.0624 2.3558 25.0111 3.64424 26.0812L11.25 32.845H8.26783L2.14429 26.9783C2.14429 26.9783 0.767831 25.8739 0.661842 24.3037V23.9759C0.679585 23.8725 0.679585 23.7691 0.714837 23.6481C0.714837 23.6481 0.979576 21.9224 3.6265 20.8701L20.9559 13.9506ZM4.72047 33.9491H0.767831V34.8983H1.66757V37.7797H0.767831V38.7633H4.72047V37.7797H3.75V36.8653H6.66189V37.7797H5.70892V38.7633H9.60904V37.7797H8.67381V34.8983H9.60904V33.9491H5.69118V34.8983H6.66189V35.847H3.75V34.8983H4.72047V33.9491ZM39.4325 36.1752H40.1913L39.4325 35.0535L39.3441 34.9501L38.6561 36.1752H39.4325ZM39.4325 33.9491H41.003L43.3677 37.7797H44.3384V38.7633H40.0851V37.7797H41.038L40.6323 37.2104H38.0561L37.7384 37.7797H38.6736V38.7633H35.3914V37.7797H36.3974L38.0206 34.8983H36.9266V33.9491H39.4325ZM31.8618 37.7279C32.797 37.6245 33.3443 37.2793 33.3443 36.382C33.3443 35.3468 32.7268 35.019 31.8618 34.9325C31.7031 34.9152 31.5441 34.9152 31.368 34.9152H30.3796V37.7624H31.1738C31.4208 37.7624 31.6501 37.7452 31.8618 37.7279ZM31.8618 33.9491H32.497C34.1207 33.9491 35.3387 34.691 35.3387 36.382C35.3387 38.3317 34.1915 38.7288 31.8618 38.7633H27.4325V37.7797H28.3854V34.8983H27.4325V33.9491H31.8618ZM13.7559 37.9523C14.6736 37.9349 15.3971 37.2278 15.3971 36.3647C15.3971 35.4502 14.6559 34.7602 13.7559 34.7602H13.7382C12.8382 34.7602 12.1147 35.4502 12.1147 36.3478C12.1147 37.1931 12.8029 37.9523 13.7207 37.9523H13.7559ZM13.7559 33.7074H13.8089C16.1206 33.7074 17.6383 34.5531 17.6383 36.296C17.6383 37.9005 16.2441 38.9701 13.7559 38.9701H13.6854C11.2677 38.9701 9.82055 38.0557 9.82055 36.3304C9.82055 34.6739 11.25 33.7074 13.7559 33.7074ZM21.8559 33.9491H17.956V34.8983H18.8912V37.7797H17.956V38.7633H21.0619V37.7797H20.0912V35.3124L22.8266 38.7631H25.8443V34.8981H26.8322V33.9489H23.6204V34.8981H24.6263V37.4343L21.8559 33.9491Z" fill="#BDBDBD"/>
</svg>
