<svg width="25" height="25" viewBox="0 0 25 25" fill="none" xmlns="http://www.w3.org/2000/svg">
<g clip-path="url(#clip0)">
<path d="M12.5001 25.0001C19.4036 25.0001 25.0001 19.4036 25.0001 12.5C25.0001 5.59645 19.4036 0 12.5001 0C5.59651 0 6.10352e-05 5.59645 6.10352e-05 12.5C6.10352e-05 19.4036 5.59651 25.0001 12.5001 25.0001Z" fill="#BBC9E6"/>
<path d="M16.5644 3.83691H13.7954C12.1522 3.83691 10.3245 4.52804 10.3245 6.91C10.3325 7.73996 10.3245 8.53483 10.3245 9.42939H8.42346V12.4545H10.3833V21.1632H13.9845V12.397H16.3615L16.5766 9.4209H13.9225C13.9225 9.4209 13.9284 8.09701 13.9225 7.71254C13.9225 6.77125 14.9019 6.82515 14.9608 6.82515C15.4269 6.82515 16.3331 6.82651 16.5658 6.82515V3.83691H16.5644V3.83691Z" fill="#083D77"/>
</g>
<defs>
<clipPath id="clip0">
<rect width="25" height="25" fill="white"/>
</clipPath>
</defs>
</svg>
