<svg width="25" height="25" viewBox="0 0 25 25" fill="none" xmlns="http://www.w3.org/2000/svg">
<path d="M12.5 0C5.59362 0 0 5.67868 0 12.6901C0 18.6539 4.03085 23.6036 9.46915 24.9989C9.40638 24.8402 9.37553 24.6177 9.37553 24.3963V22.2384H7.81277C6.96915 22.2384 6.18723 21.8583 5.84362 21.1595C5.43723 20.3981 5.37447 19.2241 4.34362 18.494C4.03085 18.2402 4.28085 17.9864 4.62447 18.0178C5.28085 18.2078 5.8117 18.6528 6.3117 19.3181C6.8117 19.9844 7.03085 20.1432 7.96808 20.1432C8.40532 20.1432 9.09255 20.1119 9.71808 20.0158C10.0617 19.1269 10.6553 18.3342 11.3745 17.954C7.18723 17.4464 5.18723 15.3523 5.18723 12.4968C5.18723 11.2591 5.71808 10.0851 6.59362 9.0699C6.31277 8.08601 5.93723 6.0556 6.71915 5.26287C8.59468 5.26287 9.71915 6.50056 10 6.817C10.9372 6.49948 11.9691 6.3094 13.0309 6.3094C14.1245 6.3094 15.1245 6.49948 16.0617 6.817C16.3426 6.49948 17.4681 5.26287 19.3426 5.26287C20.0926 6.02428 19.7489 8.08601 19.4362 9.0699C20.3117 10.0538 20.8117 11.2591 20.8117 12.4968C20.8117 15.3523 18.8426 17.4464 14.6872 17.8903C15.8436 18.493 16.6564 20.2058 16.6564 21.4749V24.365C16.6564 24.46 16.6255 24.555 16.6255 24.6501C21.5 22.9372 25 18.2424 25 12.6901C25 5.67868 19.4064 0 12.5 0Z" fill="#BBC9E6"/>
</svg>
