<svg width="25" height="25" viewBox="0 0 25 25" fill="none" xmlns="http://www.w3.org/2000/svg">
<g clip-path="url(#clip0)">
<path d="M12.5 0.000488281C5.59639 0.000488281 0 5.59687 0 12.5004C0 19.404 5.59639 25.0004 12.5 25.0004C19.4036 25.0004 25 19.404 25 12.5004C25 5.59687 19.4035 0.000488281 12.5 0.000488281ZM9.16496 18.5436H6.42046V9.67693H9.16496V18.5436ZM7.77963 8.51577C6.88331 8.51577 6.15668 7.78322 6.15668 6.87972C6.15668 5.97612 6.88341 5.24362 7.77963 5.24362C8.67586 5.24362 9.40248 5.97612 9.40248 6.87972C9.40254 7.78327 8.67591 8.51577 7.77963 8.51577V8.51577ZM19.45 18.5436H16.7188V13.8893C16.7188 12.6128 16.2339 11.9002 15.2245 11.9002C14.1259 11.9002 13.552 12.6424 13.552 13.8893V18.5436H10.9198V9.67693H13.552V10.8711C13.552 10.8711 14.3438 9.40647 16.2239 9.40647C18.1041 9.40647 19.45 10.5545 19.45 12.9294L19.45 18.5436V18.5436Z" fill="#BBC9E6"/>
</g>
<defs>
<clipPath id="clip0">
<rect width="25" height="25" fill="white"/>
</clipPath>
</defs>
</svg>
