<svg width="25" height="25" viewBox="0 0 25 25" fill="none" xmlns="http://www.w3.org/2000/svg">
<g clip-path="url(#clip0)">
<path d="M12.5001 25C19.4036 25 25.0001 19.4036 25.0001 12.5C25.0001 5.59645 19.4036 0 12.5001 0C5.59651 0 6.10352e-05 5.59645 6.10352e-05 12.5C6.10352e-05 19.4036 5.59651 25 12.5001 25Z" fill="#BBC9E6"/>
<path d="M20.5147 7.52777C19.9251 7.7894 19.2919 7.96627 18.626 8.04576C19.3056 7.63885 19.8262 6.99403 20.072 6.2266C19.4264 6.60999 18.72 6.87989 17.9833 7.02459C17.3838 6.38555 16.5288 5.98657 15.583 5.98657C13.7675 5.98657 12.2952 7.45833 12.2952 9.27487C12.2952 9.53225 12.3241 9.78335 12.3799 10.0244C9.64691 9.88709 7.22395 8.57797 5.60214 6.58877C5.31895 7.07459 5.15686 7.63944 5.15686 8.24211C5.15686 9.38281 5.73746 10.3892 6.61967 10.9788C6.09741 10.9626 5.58662 10.8217 5.12999 10.5677V10.6092C5.12999 12.2026 6.2633 13.5312 7.76771 13.8334C7.49135 13.9091 7.20133 13.9486 6.90129 13.9486C6.68915 13.9486 6.48333 13.9286 6.28227 13.8907C6.70074 15.1967 7.91516 16.1473 9.3537 16.1742C8.22828 17.0564 6.8102 17.5823 5.27001 17.5823C5.00473 17.5823 4.74255 17.5665 4.48517 17.5354C5.94064 18.4687 7.66877 19.0135 9.52585 19.0135C15.574 19.0135 18.8818 14.0029 18.8818 9.65759C18.8818 9.51493 18.8787 9.37334 18.8718 9.23226C19.5163 8.76611 20.0726 8.18894 20.5147 7.52777V7.52777Z" fill="#083D77"/>
</g>
<defs>
<clipPath id="clip0">
<rect width="25" height="25" fill="white"/>
</clipPath>
</defs>
</svg>
