<svg class="grey-clouds" viewBox="-400 232.06 1200 100" xmlns="http://www.w3.org/2000/svg">
  <g>
    <g>
      <circle  cx="-383.04" cy="306.1" r="18.327" transform="matrix(0.669706, 0, 0, 0.599681, 289.6633, 113.062477)"/>
      <circle  cx="-383.04" cy="306.1" r="18.327" transform="matrix(1.042979, 0, 0, 0.969651, 451.634491, -1.020019)"/>
      <circle  cx="-383.04" cy="306.1" r="18.327" transform="matrix(0.669706, 0, 0, 0.599681, 321.622284, 122.065598)"/>
      <circle  cx="-383.04" cy="306.1" r="18.327" transform="matrix(0.9817, 0, 0, 0.795936, 452.392395, 56.539505)"/>
      <circle  cx="-383.04" cy="306.1" r="18.327" transform="matrix(0.513708, 0, 0, 0.609746, 292.629486, 115.742935)"/>
      <circle  cx="-383.04" cy="306.1" r="18.327" transform="matrix(0.921314, 0, 0, 0.680196, 469.785034, 94.140488)"/>
      <circle  cx="-383.04" cy="306.1" r="18.327" transform="matrix(0.755252, 0, 0, 0.831161, 424.203949, 43.093781)"/>
      <circle  cx="-383.04" cy="306.1" r="18.327" transform="matrix(0.755252, 0, 0, 0.831161, 440.304565, 35.555283)"/>
      <circle  cx="-383.04" cy="306.1" r="18.327" transform="matrix(0.755252, 0, 0, 0.831161, 459.530334, 49.465706)"/>
      <circle  cx="-383.04" cy="306.1" r="18.327" transform="matrix(0.755252, 0, 0, 0.831161, 475.450226, 46.967224)"/>
      <circle  cx="-383.04" cy="306.1" r="18.327" transform="matrix(0.447933, 0, 0, 0.644729, -220.214401, 104.445938)"/>
      <circle  cx="-383.04" cy="306.1" r="18.327" transform="matrix(0.664852, 0, 0, 0.740173, -122.838875, 64.763313)"/>
      <circle  cx="-383.04" cy="306.1" r="18.327" transform="matrix(1.183191, 0, 0, 1.021491, 110.215118, -4.664333)"/>
      <circle  cx="-383.04" cy="306.1" r="18.327" transform="matrix(0.664852, 0, 0, 0.740173, -110.414917, 79.750053)"/>
      <circle  cx="-383.04" cy="306.1" r="18.327" transform="matrix(0.664852, 0, 0, 0.740173, -72.7202, 75.177452)"/>
      <circle  cx="-383.04" cy="306.1" r="18.327" transform="matrix(0.664852, 0, 0, 0.740173, -57.519779, 78.360443)"/>
      <circle  cx="-383.04" cy="306.1" r="18.327" transform="matrix(1.337454, 0, 0, 1.346766, 227.463745, -116.280212)"/>
      <circle  cx="-383.04" cy="306.1" r="18.327" transform="matrix(0.619637, 0, 0, 0.592762, -27.029779, 124.365845)"/>
      <circle  cx="-383.04" cy="306.1" r="18.327" transform="matrix(1.268735, 0, 0, 1.195906, 248.221588, -58.7472)"/>
      <circle  cx="-383.04" cy="306.1" r="18.327" transform="matrix(0.696495, 0, 0, 0.880943, 54.020794, 46.488281)"/>
      <circle  cx="-383.04" cy="306.1" r="18.327" transform="matrix(0.604587, 0, 0, 0.501824, 36.252029, 150.448044)"/>
      <circle  cx="-383.04" cy="306.1" r="18.327" transform="matrix(0.574419, 0, 0, 0.559752, 43.61726, 121.453217)"/>
      <circle  cx="-383.04" cy="306.1" r="18.327" transform="matrix(0.574419, 0, 0, 0.559752, 56.265842, 126.755753)"/>
      <circle  cx="-383.04" cy="306.1" r="18.327" transform="matrix(0.574419, 0, 0, 0.559752, 73.122635, 133.347809)"/>
      <circle  cx="-383.04" cy="306.1" r="18.327" transform="matrix(0.844398, 0, 0, 0.766544, 196.905853, 66.867729)"/>
      <circle  cx="-383.04" cy="306.1" r="18.327" transform="matrix(0.844398, 0, 0, 0.766544, 192.116013, 73.207024)"/>
      <circle  cx="-383.04" cy="306.1" r="18.327" transform="matrix(0.689304, 0, 0, 0.640171, 151.398132, 95.771851)"/>
      <circle  cx="-383.04" cy="306.1" r="18.327" transform="matrix(1.493496, 0, 0, 1.030778, 481.38266, -3.043184)"/>
      <circle  cx="-383.04" cy="306.1" r="18.327" transform="matrix(0.499746, 0, 0, 0.379051, 111.579765, 181.657806)"/>
      <circle  cx="-383.04" cy="306.1" r="18.327" transform="matrix(0.581813, 0, 0, 0.659063, 161.091644, 98.604538)"/>
      <circle  cx="-383.04" cy="306.1" r="18.327" transform="matrix(0.832213, 0, 0, 0.835287, 273.563599, 38.27219)"/>
      <circle  cx="-383.04" cy="306.1" r="18.327" transform="matrix(1.007288, 0, 0, 1.053305, 367.371002, -18.352732)"/>
      <circle  cx="-383.04" cy="306.1" r="18.327" transform="matrix(0.866387, 0, 0, 0.771504, 326.524323, 68.220299)"/>
      <circle  cx="-383.04" cy="306.1" r="18.327" transform="matrix(0.977394, 0, 0, 1.267487, 106.368263, -104.455666)"/>
      <circle  cx="-383.04" cy="306.1" r="18.327" transform="matrix(1.211928, 0, 0, 0.771992, 210.854797, 53.269272)"/>
      <circle  cx="-383.04" cy="306.1" r="18.327" transform="matrix(0.617334, 0, 0, 0.923944, 25.14974, 24.07111)"/>
      <circle  cx="-383.04" cy="306.1" r="18.327" transform="matrix(0.832049, 0, 0, 0.851271, 127.095993, 45.46859)"/>
      <circle  cx="-383.04" cy="306.1" r="18.327" transform="matrix(0.973388, 0, 0, 0.897829, 280.216827, 18.019812)"/>
      <circle  cx="-383.04" cy="306.1" r="18.327" transform="matrix(0.866387, 0, 0, 0.771504, 344.812225, 70.975098)"/>
      <circle  cx="-383.04" cy="306.1" r="18.327" transform="matrix(0.669706, 0, 0, 0.599681, 318.996948, 99.596436)"/>
      <circle  cx="-383.04" cy="306.1" r="18.327" transform="matrix(0.669706, 0, 0, 0.599681, 331.347046, 105.447281)"/>
      <rect x="-400" y="300" width="600" height="32.079" />
    </g>
    <g transform="matrix(1, 0, 0, 1, 600, 0)">
      <circle  cx="-383.04" cy="306.1" r="18.327" transform="matrix(0.669706, 0, 0, 0.599681, 289.6633, 113.062477)"/>
      <circle  cx="-383.04" cy="306.1" r="18.327" transform="matrix(1.042979, 0, 0, 0.969651, 451.634491, -1.020019)"/>
      <circle  cx="-383.04" cy="306.1" r="18.327" transform="matrix(0.669706, 0, 0, 0.599681, 321.622284, 122.065598)"/>
      <circle  cx="-383.04" cy="306.1" r="18.327" transform="matrix(0.9817, 0, 0, 0.795936, 452.392395, 56.539505)"/>
      <circle  cx="-383.04" cy="306.1" r="18.327" transform="matrix(0.513708, 0, 0, 0.609746, 292.629486, 115.742935)"/>
      <circle  cx="-383.04" cy="306.1" r="18.327" transform="matrix(0.921314, 0, 0, 0.680196, 469.785034, 94.140488)"/>
      <circle  cx="-383.04" cy="306.1" r="18.327" transform="matrix(0.755252, 0, 0, 0.831161, 424.203949, 43.093781)"/>
      <circle  cx="-383.04" cy="306.1" r="18.327" transform="matrix(0.755252, 0, 0, 0.831161, 440.304565, 35.555283)"/>
      <circle  cx="-383.04" cy="306.1" r="18.327" transform="matrix(0.755252, 0, 0, 0.831161, 459.530334, 49.465706)"/>
      <circle  cx="-383.04" cy="306.1" r="18.327" transform="matrix(0.755252, 0, 0, 0.831161, 475.450226, 46.967224)"/>
      <circle  cx="-383.04" cy="306.1" r="18.327" transform="matrix(0.447933, 0, 0, 0.644729, -220.214401, 104.445938)"/>
      <circle  cx="-383.04" cy="306.1" r="18.327" transform="matrix(0.664852, 0, 0, 0.740173, -122.838875, 64.763313)"/>
      <circle  cx="-383.04" cy="306.1" r="18.327" transform="matrix(1.183191, 0, 0, 1.021491, 110.215118, -4.664333)"/>
      <circle  cx="-383.04" cy="306.1" r="18.327" transform="matrix(0.664852, 0, 0, 0.740173, -110.414917, 79.750053)"/>
      <circle  cx="-383.04" cy="306.1" r="18.327" transform="matrix(0.664852, 0, 0, 0.740173, -72.7202, 75.177452)"/>
      <circle  cx="-383.04" cy="306.1" r="18.327" transform="matrix(0.664852, 0, 0, 0.740173, -57.519779, 78.360443)"/>
      <circle  cx="-383.04" cy="306.1" r="18.327" transform="matrix(1.337454, 0, 0, 1.346766, 227.463745, -116.280212)"/>
      <circle  cx="-383.04" cy="306.1" r="18.327" transform="matrix(0.619637, 0, 0, 0.592762, -27.029779, 124.365845)"/>
      <circle  cx="-383.04" cy="306.1" r="18.327" transform="matrix(1.268735, 0, 0, 1.195906, 248.221588, -58.7472)"/>
      <circle  cx="-383.04" cy="306.1" r="18.327" transform="matrix(0.696495, 0, 0, 0.880943, 54.020794, 46.488281)"/>
      <circle  cx="-383.04" cy="306.1" r="18.327" transform="matrix(0.604587, 0, 0, 0.501824, 36.252029, 150.448044)"/>
      <circle  cx="-383.04" cy="306.1" r="18.327" transform="matrix(0.574419, 0, 0, 0.559752, 43.61726, 121.453217)"/>
      <circle  cx="-383.04" cy="306.1" r="18.327" transform="matrix(0.574419, 0, 0, 0.559752, 56.265842, 126.755753)"/>
      <circle  cx="-383.04" cy="306.1" r="18.327" transform="matrix(0.574419, 0, 0, 0.559752, 73.122635, 133.347809)"/>
      <circle  cx="-383.04" cy="306.1" r="18.327" transform="matrix(0.844398, 0, 0, 0.766544, 196.905853, 66.867729)"/>
      <circle  cx="-383.04" cy="306.1" r="18.327" transform="matrix(0.844398, 0, 0, 0.766544, 192.116013, 73.207024)"/>
      <circle  cx="-383.04" cy="306.1" r="18.327" transform="matrix(0.689304, 0, 0, 0.640171, 151.398132, 95.771851)"/>
      <circle  cx="-383.04" cy="306.1" r="18.327" transform="matrix(1.493496, 0, 0, 1.030778, 481.38266, -3.043184)"/>
      <circle  cx="-383.04" cy="306.1" r="18.327" transform="matrix(0.499746, 0, 0, 0.379051, 111.579765, 181.657806)"/>
      <circle  cx="-383.04" cy="306.1" r="18.327" transform="matrix(0.581813, 0, 0, 0.659063, 161.091644, 98.604538)"/>
      <circle  cx="-383.04" cy="306.1" r="18.327" transform="matrix(0.832213, 0, 0, 0.835287, 273.563599, 38.27219)"/>
      <circle  cx="-383.04" cy="306.1" r="18.327" transform="matrix(1.007288, 0, 0, 1.053305, 367.371002, -18.352732)"/>
      <circle  cx="-383.04" cy="306.1" r="18.327" transform="matrix(0.866387, 0, 0, 0.771504, 326.524323, 68.220299)"/>
      <circle  cx="-383.04" cy="306.1" r="18.327" transform="matrix(0.977394, 0, 0, 1.267487, 106.368263, -104.455666)"/>
      <circle  cx="-383.04" cy="306.1" r="18.327" transform="matrix(1.211928, 0, 0, 0.771992, 210.854797, 53.269272)"/>
      <circle  cx="-383.04" cy="306.1" r="18.327" transform="matrix(0.617334, 0, 0, 0.923944, 25.14974, 24.07111)"/>
      <circle  cx="-383.04" cy="306.1" r="18.327" transform="matrix(0.832049, 0, 0, 0.851271, 127.095993, 45.46859)"/>
      <circle  cx="-383.04" cy="306.1" r="18.327" transform="matrix(0.973388, 0, 0, 0.897829, 280.216827, 18.019812)"/>
      <circle  cx="-383.04" cy="306.1" r="18.327" transform="matrix(0.866387, 0, 0, 0.771504, 344.812225, 70.975098)"/>
      <circle  cx="-383.04" cy="306.1" r="18.327" transform="matrix(0.669706, 0, 0, 0.599681, 318.996948, 99.596436)"/>
      <circle  cx="-383.04" cy="306.1" r="18.327" transform="matrix(0.669706, 0, 0, 0.599681, 331.347046, 105.447281)"/>
      <rect x="-400" y="300" width="600" height="32.079" />
    </g>
  </g>
</svg>